CatyuBasic.sfdir
StartChar: exclam
Encoding: 33 33 35
Width: 478
Flags: W
LayerCount: 2
Fore
SplineSet
182 348 m 0,0,1
 184 381 184 381 208.5 402.5 c 128,-1,2
 233 424 233 424 266 422 c 0,3,4
 294 421 294 421 309 396 c 128,-1,5
 324 371 324 371 322 340 c 0,6,7
 321 318 321 318 301 306 c 128,-1,8
 281 294 281 294 256 296 c 0,9,10
 225 298 225 298 202.5 311 c 128,-1,11
 180 324 180 324 182 348 c 0,0,1
72 168 m 0,12,13
 74 201 74 201 98.5 222.5 c 128,-1,14
 123 244 123 244 156 242 c 0,15,16
 184 241 184 241 199 216 c 128,-1,17
 214 191 214 191 212 160 c 0,18,19
 211 138 211 138 191 126 c 128,-1,20
 171 114 171 114 146 116 c 0,21,22
 115 118 115 118 92.5 131 c 128,-1,23
 70 144 70 144 72 168 c 0,12,13
282 168 m 4,24,25
 284 201 284 201 308.5 222.5 c 132,-1,26
 333 244 333 244 366 242 c 4,27,28
 394 241 394 241 409 216 c 132,-1,29
 424 191 424 191 422 160 c 4,30,31
 421 138 421 138 401 126 c 132,-1,32
 381 114 381 114 356 116 c 4,33,34
 325 118 325 118 302.5 131 c 132,-1,35
 280 144 280 144 282 168 c 4,24,25
EndSplineSet
Validated: 33
EndChar
StartChar: parenleft
Encoding: 40 40 39
Width: 478
Flags: W
LayerCount: 2
Back
Fore
SplineSet
158 281 m 0,0,1
 222 340 222 340 230 403 c 0,2,3
 239 472 239 472 205 525.25 c 0,4,5
 152 609 152 609 158 620 c 0,6,7
 209 709 209 709 272 686 c 0,8,9
 387 643 387 643 350.5 604.5 c 0,10,11
 336 589 336 589 335 593 c 0,12,13
 327 647 327 647 290 642 c 0,14,15
 196 628 196 628 217 589 c 0,16,17
 242 543 242 543 252.544870073 481.237074429 c 0,18,19
 262 428 262 428 248 366 c 0,20,21
 232 294 232 294 258 296 c 0,22,23
 321.484211469 301.203623891 321.484211469 301.203623891 368 389 c 4,24,25
 328 314 328 314 393 145 c 0,26,27
 458 -1 l 0,28,29
 349 -87 l 0,30,31
 220 -167 220 -167 133 -126 c 0,32,33
 26 -75 26 -75 78 -8 c 0,34,35
 143 76 143 76 136 60 c 0,36,37
 98 -29 98 -29 104 -40 c 0,38,39
 171 -141 171 -141 309.021484375 -44.482421875 c 0,40,41
 395 15 395 15 347 140 c 0,42,43
 298 266 298 266 251 257 c 24,44,45
 220 251 220 251 186.5 259.75 c 0,46,47
 147 270 147 270 158 281 c 0,0,1
47.9763733669 291.243211261 m 0,48,49
 47.9763733669 307.592154583 47.9763733669 307.592154583 60.5897414927 318.146109746 c 0,50,51
 70.649896417 326.563720565 70.649896417 326.563720565 84.1393939547 326.563720565 c 0,52,53
 87.3716192202 326.563720565 87.3716192202 326.563720565 90.5 326 c 0,54,55
 104.187527966 323.533567188 104.187527966 323.533567188 112.6660587 312.72321135 c 128,-1,56
 121.272211778 301.750133574 121.272211778 301.750133574 120 288 c 0,57,58
 118.779510021 274.808878417 118.779510021 274.808878417 108.983044107 265.678359022 c 128,-1,59
 99.3326119612 256.683946276 99.3326119612 256.683946276 86 256 c 0,60,61
 71.0033014287 255.230688167 71.0033014287 255.230688167 59.8720108448 265.083835976 c 0,62,63
 56.1853280207 268.347197983 56.1853280207 268.347197983 53.5331769649 272.441868935 c 128,-1,64
 50.8810259091 276.536539887 50.8810259091 276.536539887 49.428699638 281.356495413 c 128,-1,65
 47.9763733669 286.176450939 47.9763733669 286.176450939 47.9763733669 291.243211261 c 0,48,49
  Spiro
    48 290 o
    90.5 326 o
    120 288 o
    86 256 o
    0 0 z
  EndSpiro
EndSplineSet
Validated: 524321
EndChar
StartChar: period
Encoding: 46 46 33
Width: 212
Flags: W
LayerCount: 2
Fore
SplineSet
119 204 m 0,0,1
 56 200 56 200 59 148 c 0,2,3
 61 109 61 109 120 111 c 24,4,5
 163 112 163 112 161 150 c 0,6,7
 158 207 158 207 119 204 c 0,0,1
40 148 m 0,8,9
 42 181 42 181 66.5 202.5 c 128,-1,10
 91 224 91 224 124 222 c 0,11,12
 152 221 152 221 167 196 c 128,-1,13
 182 171 182 171 180 140 c 0,14,15
 179 118 179 118 159 106 c 128,-1,16
 139 94 139 94 114 96 c 0,17,18
 83 98 83 98 60.5 111 c 128,-1,19
 38 124 38 124 40 148 c 0,8,9
EndSplineSet
Validated: 33
EndChar
StartChar: question
Encoding: 63 63 36
Width: 478
Flags: W
LayerCount: 2
Fore
SplineSet
495 672 m 0,0,1
 426 767 426 767 269 648 c 0,2,3
 79 504 79 504 214 385 c 0,4,5
 342 273 342 273 451 430 c 0,6,7
 558 585 558 585 495 672 c 0,0,1
537 710 m 24,8,9
 654.3125 569.431640625 654.3125 569.431640625 478 410 c 24,10,11
 278.466796875 229.247070312 278.466796875 229.247070312 161 370 c 24,12,13
 51.404296875 501.514648438 51.404296875 501.514648438 251 682 c 24,14,15
 427 841 427 841 537 710 c 24,8,9
282 168 m 4,16,17
 284 201 284 201 308.5 222.5 c 132,-1,18
 333 244 333 244 366 242 c 4,19,20
 394 241 394 241 409 216 c 132,-1,21
 424 191 424 191 422 160 c 4,22,23
 421 138 421 138 401 126 c 132,-1,24
 381 114 381 114 356 116 c 4,25,26
 325 118 325 118 302.5 131 c 132,-1,27
 280 144 280 144 282 168 c 4,16,17
EndSplineSet
Validated: 524321
EndChar
StartChar: C
Encoding: 67 67 3
Width: 1000
Flags: W
LayerCount: 2
Fore
SplineSet
574 -82 m 0,0,1
 576 -49 576 -49 600.5 -27.5 c 128,-1,2
 625 -6 625 -6 658 -8 c 0,3,4
 686 -9 686 -9 701 -34 c 128,-1,5
 716 -59 716 -59 714 -90 c 0,6,7
 713 -112 713 -112 693 -124 c 128,-1,8
 673 -136 673 -136 648 -134 c 0,9,10
 617 -132 617 -132 594.5 -119 c 128,-1,11
 572 -106 572 -106 574 -82 c 0,0,1
143 130 m 0,12,13
 143 133 143 133 164 144 c 128,-1,14
 185 155 185 155 220 176.5 c 128,-1,15
 255 198 255 198 299 228.5 c 128,-1,16
 343 259 343 259 391.5 306.5 c 128,-1,17
 440 354 440 354 485 410.5 c 128,-1,18
 530 467 530 467 570.5 547.5 c 128,-1,19
 611 628 611 628 635 719 c 0,20,21
 643 750 643 750 673 725 c 0,22,23
 705 697 705 697 714 654 c 0,24,25
 719 627 719 627 707 610 c 0,26,27
 705 608 705 608 645.5 522 c 128,-1,28
 586 436 586 436 547.5 384.5 c 128,-1,29
 509 333 509 333 444.5 260 c 128,-1,30
 380 187 380 187 327 148 c 0,31,32
 285 117 285 117 357 93 c 0,33,34
 426 70 426 70 512 74 c 0,35,36
 570 77 570 77 604 99.5 c 128,-1,37
 638 122 638 122 647 152.5 c 128,-1,38
 656 183 656 183 659 213 c 128,-1,39
 662 243 662 243 666.5 264 c 128,-1,40
 671 285 671 285 687 286 c 0,41,42
 716 287 716 287 723.5 268.5 c 128,-1,43
 731 250 731 250 735 215.5 c 128,-1,44
 739 181 739 181 757 158 c 0,45,46
 771 140 771 140 801 124 c 128,-1,47
 831 108 831 108 850 111 c 0,48,49
 939 125 939 125 857 265 c 0,50,51
 847 281 847 281 829 309 c 0,52,53
 799 360 799 360 807 360 c 0,54,55
 886 343 886 343 927.5 278 c 128,-1,56
 969 213 969 213 971 124 c 0,57,58
 972 83 972 83 928.5 63 c 128,-1,59
 885 43 885 43 845 62 c 0,60,61
 795 89 795 89 742.5 86.5 c 128,-1,62
 690 84 690 84 658 70 c 128,-1,63
 626 56 626 56 580 39.5 c 128,-1,64
 534 23 534 23 497 24 c 0,65,66
 438 25 438 25 290.5 66.5 c 128,-1,67
 143 108 143 108 143 130 c 0,12,13
EndSplineSet
Validated: 33
EndChar
StartChar: C
Encoding: 67 67 20
Width: 1000
Flags: HW
LayerCount: 2
Fore
SplineSet
574 -82 m 28
 577 -38 614 -5 658 -8 c 28
 697 -10 717 -51 714 -90 c 28
 712 -121 679 -136 648 -134 c 28
 613 -132 571 -117 574 -82 c 28
143 130 m 0
 143 146 516 275 635 719 c 0
 650.926757812 778.424804688 742.845010496 659.72049843 707 610 c 0
 645 524 478.477365651 261.006923581 327 148 c 0
 264 101 420.099601413 70.042566568 512 74 c 0
 721 83 627 284 687 286 c 0
 753.235351562 288.208007812 712.11328125 216.087890625 757 158 c 0
 774 136 823.014591877 106.783565099 850 111 c 0
 990.701171875 132.984375 769 368 807 360 c 0
 917.033561314 336.835039723 969.002472041 235.861565705 971 124 c 0
 972 68 896.116210938 37.76953125 845 62 c 0
 691 135 615.992399732 22.324050708 497 24 c 0
 426 25 143 98 143 130 c 0
EndSplineSet
Validated: 524321
EndChar
StartChar: D
Encoding: 68 68 28
Width: 534
Flags: WO
LayerCount: 2
Back
Fore
SplineSet
150 30 m 1,0,1
 511 -39 511 -39 534 -35 c 0,2,3
 638 -18 638 -18 642 26 c 24,4,-1
 592 108 l 0,5,6
 646 180 l 0,7,8
 685 96 685 96 737 36 c 0,9,10
 749 22 749 22 778 10 c 24,11,-1
 740 162 l 0,12,13
 796 226 796 226 816 172 c 0,14,15
 857 62 857 62 909 27 c 0,16,17
 1024 -51 1024 -51 957 69 c 0,18,19
 881 205 881 205 917 201 c 0,20,21
 1029.73141958 188.812819505 1029.73141958 188.812819505 1077 29 c 0,22,23
 1098 -42 1098 -42 870 -46 c 24,24,25
 815.942527037 -47.6934782772 815.942527037 -47.6934782772 626 -77 c 1,26,27
 334 -98 334 -98 150 30 c 1,0,1
732 618 m 0,28,29
 790 746 790 746 812 520 c 0,30,31
 811.995260104 516.264801129 811.995260104 516.264801129 256 64 c 0,32,33
 612.293998153 353.821237304 612.293998153 353.821237304 732 618 c 0,28,29
EndSplineSet
EndChar
StartChar: D
Encoding: 68 68 28
Width: 1000
Flags: W
LayerCount: 2
Back
Fore
SplineSet
1053 -44 m 0,0,1
 1034 -60 1034 -60 896 -56 c 1,2,3
 698 -41 l 1,4,5
 583 11 583 11 608 93 c 0,6,7
 648 223 648 223 657 165 c 0,8,9
 667.057407407 102.644074074 667.057407407 102.644074074 720 23 c 24,10,11
 739.758125472 -7.62509448224 739.758125472 -7.62509448224 772 -8 c 24,12,13
 811 -8 811 -8 806 22 c 24,14,-1
 748 143 l 24,15,16
 772.363036023 264.279612153 772.363036023 264.279612153 797 189 c 24,17,18
 851 24 851 24 883 1 c 0,19,20
 943 -43 943 -43 984 17 c 0,21,-1
 898 179 l 0,22,-1
 918 213 l 0,23,24
 941 164 941 164 1069 27 c 0,25,26
 1099 -5 1099 -5 1053 -44 c 0,0,1
160 24 m 0,27,28
 194 -10 194 -10 332 -35 c 24,29,30
 376 -43 376 -43 512 -43 c 0,31,-1
 582 -29 l 0,32,33
 620.158875942 -71.1755997258 620.158875942 -71.1755997258 565 -74 c 24,34,35
 485.28301316 -78.0363031311 485.28301316 -78.0363031311 250 -46 c 24,36,37
 140 -31 140 -31 117 -13 c 24,38,-1
 160 24 l 0,27,28
227 60 m 1,39,-1
 614.514648438 383.387695312 l 1,40,41
 688 458 688 458 689.5 579.5 c 0,42,43
 690 626 690 626 731 626 c 0,44,45
 773 626 773 626 777 609.5 c 128,-1,46
 781 593 781 593 781.026367188 544.6640625 c 0,47,48
 781 538 781 538 781 534 c 0,49,50
 781 489 781 489 689.5 393.5 c 0,51,52
 652 355 652 355 494.5 233 c 0,53,54
 317.654521796 106.54066363 317.654521796 106.54066363 315 104.5 c 0,55,56
 241 47 241 47 227 60 c 1,39,-1
EndSplineSet
Validated: 524321
EndChar
StartChar: E
Encoding: 69 69 4
Width: 1000
Flags: W
LayerCount: 2
Fore
SplineSet
444 -142 m 0,0,1
 446 -109 446 -109 470.5 -87.5 c 128,-1,2
 495 -66 495 -66 528 -68 c 0,3,4
 556 -69 556 -69 571 -94 c 128,-1,5
 586 -119 586 -119 584 -150 c 0,6,7
 583 -172 583 -172 563 -184 c 128,-1,8
 543 -196 543 -196 518 -194 c 0,9,10
 487 -192 487 -192 464.5 -179 c 128,-1,11
 442 -166 442 -166 444 -142 c 0,0,1
87 44 m 0,12,13
 87 91 87 91 115.5 156 c 128,-1,14
 144 221 144 221 165.5 255 c 128,-1,15
 187 289 187 289 250 380 c 0,16,17
 252 384 252 384 253 385.5 c 128,-1,18
 254 387 254 387 256 390 c 128,-1,19
 258 393 258 393 259.5 395.5 c 128,-1,20
 261 398 261 398 263 400 c 0,21,22
 284 430 284 430 309 477 c 128,-1,23
 334 524 334 524 352 556.5 c 128,-1,24
 370 589 370 589 395 621 c 128,-1,25
 420 653 420 653 453.5 669 c 128,-1,26
 487 685 487 685 531 684 c 0,27,28
 568 683 568 683 598.5 668.5 c 128,-1,29
 629 654 629 654 648.5 636 c 128,-1,30
 668 618 668 618 689 582 c 128,-1,31
 710 546 710 546 720 523 c 128,-1,32
 730 500 730 500 749 451.5 c 128,-1,33
 768 403 768 403 777 382 c 0,34,35
 785 364 785 364 800.5 328.5 c 128,-1,36
 816 293 816 293 826 270 c 128,-1,37
 836 247 836 247 850 213 c 128,-1,38
 864 179 864 179 871 155.5 c 128,-1,39
 878 132 878 132 885.5 103.5 c 128,-1,40
 893 75 893 75 893 56 c 128,-1,41
 893 37 893 37 889 19.5 c 128,-1,42
 885 2 885 2 872 -7.5 c 128,-1,43
 859 -17 859 -17 839 -20 c 0,44,45
 763 -30 763 -30 719.5 -34 c 128,-1,46
 676 -38 676 -38 612.5 -39.5 c 128,-1,47
 549 -41 549 -41 508 -29.5 c 128,-1,48
 467 -18 467 -18 445 6 c 0,49,50
 427 26 427 26 420 64 c 128,-1,51
 413 102 413 102 417 158 c 128,-1,52
 421 214 421 214 428 261.5 c 128,-1,53
 435 309 435 309 447 378 c 0,54,55
 451 399 451 399 480.5 393 c 128,-1,56
 510 387 510 387 515 366 c 0,57,58
 525 322 525 322 529 272 c 128,-1,59
 533 222 533 222 534 193.5 c 128,-1,60
 535 165 535 165 542 138 c 128,-1,61
 549 111 549 111 569.5 97 c 128,-1,62
 590 83 590 83 629 78 c 0,63,64
 676 72 676 72 703 82 c 128,-1,65
 730 92 730 92 738 111 c 128,-1,66
 746 130 746 130 743 159.5 c 128,-1,67
 740 189 740 189 731.5 214 c 128,-1,68
 723 239 723 239 712.5 270 c 128,-1,69
 702 301 702 301 699 314 c 0,70,71
 691 354 691 354 686 373 c 128,-1,72
 681 392 681 392 670.5 428 c 128,-1,73
 660 464 660 464 649 483 c 128,-1,74
 638 502 638 502 621.5 523 c 128,-1,75
 605 544 605 544 583.5 551.5 c 128,-1,76
 562 559 562 559 535 556 c 0,77,78
 499 552 499 552 477 545 c 128,-1,79
 455 538 455 538 436 519.5 c 128,-1,80
 417 501 417 501 406.5 486 c 128,-1,81
 396 471 396 471 371 431 c 128,-1,82
 346 391 346 391 325 360 c 0,83,84
 316 346 316 346 245.5 231.5 c 128,-1,85
 175 117 175 117 131 60 c 128,-1,86
 87 3 87 3 87 44 c 0,12,13
EndSplineSet
EndChar
StartChar: E
Encoding: 69 69 2
Width: 1000
Flags: HW
LayerCount: 2
Fore
SplineSet
444 -142 m 24
 447 -98 484 -65 528 -68 c 24
 567 -70 587 -111 584 -150 c 24
 582 -181 549 -196 518 -194 c 24
 483 -192 441 -177 444 -142 c 24
87 44 m 0
 87 150 175 272 263 400 c 24
 350 525 378 689 531 684 c 24
 683 679 717.327520885 522.139913074 777 382 c 0
 843 227 963 -4 839 -20 c 0
 690.596679688 -39.1484375 506.153959217 -62.4924343235 445 6 c 0
 395 62 419.718448257 225.223310238 447 378 c 0
 452 406 508.686523438 393.461914062 515 366 c 0
 555 192 493.657165508 95.9536413102 629 78 c 0
 825 52 714.64453125 240.922851562 699 314 c 0
 675 426.106445312 645.58046079 568.901053759 535 556 c 0
 415 542 421 498 325 360 c 0
 271.977038984 283.779493539 87 -48.1954445729 87 44 c 0
EndSplineSet
Validated: 524321
EndChar
StartChar: G
Encoding: 71 71 33
Width: 534
Flags: WO
LayerCount: 2
Fore
SplineSet
694 -192 m 4,0,1
 696 -159 696 -159 720.5 -137.5 c 132,-1,2
 745 -116 745 -116 778 -118 c 4,3,4
 806 -119 806 -119 821 -144 c 132,-1,5
 836 -169 836 -169 834 -200 c 4,6,7
 833 -222 833 -222 813 -234 c 132,-1,8
 793 -246 793 -246 768 -244 c 4,9,10
 737 -242 737 -242 714.5 -229 c 132,-1,11
 692 -216 692 -216 694 -192 c 4,0,1
945 -192 m 0,12,13
 947 -159 947 -159 971.5 -137.5 c 128,-1,14
 996 -116 996 -116 1029 -118 c 0,15,16
 1057 -119 1057 -119 1072 -144 c 128,-1,17
 1087 -169 1087 -169 1085 -200 c 0,18,19
 1084 -222 1084 -222 1064 -234 c 128,-1,20
 1044 -246 1044 -246 1019 -244 c 0,21,22
 988 -242 988 -242 965.5 -229 c 128,-1,23
 943 -216 943 -216 945 -192 c 0,12,13
150 30 m 1,24,25
 511 -39 511 -39 534 -35 c 0,26,27
 638 -18 638 -18 642 26 c 24,28,-1
 592 108 l 0,29,-1
 646 180 l 0,30,31
 685 96 685 96 737 36 c 0,32,33
 749 22 749 22 778 10 c 24,34,-1
 740 162 l 0,35,36
 796 226 796 226 816 172 c 0,37,38
 857 62 857 62 909 27 c 0,39,40
 1024 -51 1024 -51 957 69 c 0,41,42
 881 205 881 205 917 201 c 0,43,44
 1029.73141958 188.812819505 1029.73141958 188.812819505 1077 29 c 0,45,46
 1098 -42 1098 -42 870 -46 c 24,47,48
 815.942527037 -47.6934782772 815.942527037 -47.6934782772 626 -77 c 1,49,50
 334 -98 334 -98 150 30 c 1,24,25
732 618 m 0,51,52
 790 746 790 746 812 520 c 0,53,54
 811.995260104 516.264801129 811.995260104 516.264801129 256 64 c 0,55,56
 612.293998153 353.821237304 612.293998153 353.821237304 732 618 c 0,51,52
EndSplineSet
EndChar
StartChar: G
Encoding: 71 71 32
Width: 1000
Flags: W
LayerCount: 2
Fore
SplineSet
894 -172 m 0,0,1
 896 -139 896 -139 920.5 -117.5 c 128,-1,2
 945 -96 945 -96 978 -98 c 0,3,4
 1006 -99 1006 -99 1021 -124 c 128,-1,5
 1036 -149 1036 -149 1034 -180 c 0,6,7
 1033 -202 1033 -202 1013 -214 c 128,-1,8
 993 -226 993 -226 968 -224 c 0,9,10
 937 -222 937 -222 914.5 -209 c 128,-1,11
 892 -196 892 -196 894 -172 c 0,0,1
664 -172 m 0,12,13
 666 -139 666 -139 690.5 -117.5 c 128,-1,14
 715 -96 715 -96 748 -98 c 0,15,16
 776 -99 776 -99 791 -124 c 128,-1,17
 806 -149 806 -149 804 -180 c 0,18,19
 803 -202 803 -202 783 -214 c 128,-1,20
 763 -226 763 -226 738 -224 c 0,21,22
 707 -222 707 -222 684.5 -209 c 128,-1,23
 662 -196 662 -196 664 -172 c 0,12,13
1053 -44 m 0,24,25
 1034 -60 1034 -60 896 -56 c 1,26,-1
 698 -41 l 1,27,28
 583 11 583 11 608 93 c 0,29,30
 648 223 648 223 657 165 c 0,31,32
 667.057407407 102.644074074 667.057407407 102.644074074 720 23 c 24,33,34
 739.758125472 -7.62509448224 739.758125472 -7.62509448224 772 -8 c 24,35,36
 811 -8 811 -8 806 22 c 24,37,-1
 748 143 l 24,38,39
 772.363036023 264.279612153 772.363036023 264.279612153 797 189 c 24,40,41
 851 24 851 24 883 1 c 0,42,43
 943 -43 943 -43 984 17 c 0,44,-1
 898 179 l 0,45,-1
 918 213 l 0,46,47
 941 164 941 164 1069 27 c 0,48,49
 1099 -5 1099 -5 1053 -44 c 0,24,25
160 24 m 0,50,51
 194 -10 194 -10 332 -35 c 24,52,53
 376 -43 376 -43 512 -43 c 0,54,-1
 582 -29 l 0,55,56
 620.158875942 -71.1755997258 620.158875942 -71.1755997258 565 -74 c 24,57,58
 485.28301316 -78.0363031311 485.28301316 -78.0363031311 250 -46 c 24,59,60
 140 -31 140 -31 117 -13 c 24,61,-1
 160 24 l 0,50,51
227 60 m 1,62,-1
 614.514648438 383.387695312 l 1,63,64
 688 458 688 458 689.5 579.5 c 0,65,66
 690 626 690 626 731 626 c 0,67,68
 773 626 773 626 777 609.5 c 128,-1,69
 781 593 781 593 781.026367188 544.6640625 c 0,70,71
 781 538 781 538 781 534 c 0,72,73
 781 489 781 489 689.5 393.5 c 0,74,75
 652 355 652 355 494.5 233 c 0,76,77
 317.654521796 106.54066363 317.654521796 106.54066363 315 104.5 c 0,78,79
 241 47 241 47 227 60 c 1,62,-1
EndSplineSet
Validated: 524321
EndChar
StartChar: J
Encoding: 74 74 32
Width: 534
Flags: WO
LayerCount: 2
Fore
SplineSet
664 -192 m 4,0,1
 666 -159 666 -159 690.5 -137.5 c 132,-1,2
 715 -116 715 -116 748 -118 c 4,3,4
 776 -119 776 -119 791 -144 c 132,-1,5
 806 -169 806 -169 804 -200 c 4,6,7
 803 -222 803 -222 783 -234 c 132,-1,8
 763 -246 763 -246 738 -244 c 4,9,10
 707 -242 707 -242 684.5 -229 c 132,-1,11
 662 -216 662 -216 664 -192 c 4,0,1
150 30 m 5,12,13
 511 -39 511 -39 534 -35 c 4,14,15
 638 -18 638 -18 642 26 c 28,16,-1
 592 108 l 4,17,-1
 646 180 l 4,18,19
 685 96 685 96 737 36 c 4,20,21
 749 22 749 22 778 10 c 28,22,-1
 740 162 l 4,23,24
 796 226 796 226 816 172 c 4,25,26
 857 62 857 62 909 27 c 4,27,28
 1024 -51 1024 -51 957 69 c 4,29,30
 881 205 881 205 917 201 c 4,31,32
 1029.73141958 188.812819505 1029.73141958 188.812819505 1077 29 c 4,33,34
 1098 -42 1098 -42 870 -46 c 28,35,36
 815.942527037 -47.6934782772 815.942527037 -47.6934782772 626 -77 c 5,37,38
 334 -98 334 -98 150 30 c 5,12,13
732 618 m 4,39,40
 790 746 790 746 812 520 c 4,41,42
 811.995260104 516.264801129 811.995260104 516.264801129 256 64 c 4,43,44
 612.293998153 353.821237304 612.293998153 353.821237304 732 618 c 4,39,40
EndSplineSet
EndChar
StartChar: J
Encoding: 74 74 31
Width: 1000
Flags: W
LayerCount: 2
Fore
SplineSet
734 -172 m 0,0,1
 736 -139 736 -139 760.5 -117.5 c 128,-1,2
 785 -96 785 -96 818 -98 c 0,3,4
 846 -99 846 -99 861 -124 c 128,-1,5
 876 -149 876 -149 874 -180 c 0,6,7
 873 -202 873 -202 853 -214 c 128,-1,8
 833 -226 833 -226 808 -224 c 0,9,10
 777 -222 777 -222 754.5 -209 c 128,-1,11
 732 -196 732 -196 734 -172 c 0,0,1
1053 -44 m 0,12,13
 1034 -60 1034 -60 896 -56 c 1,14,-1
 698 -41 l 1,15,16
 583 11 583 11 608 93 c 0,17,18
 648 223 648 223 657 165 c 0,19,20
 667.057407407 102.644074074 667.057407407 102.644074074 720 23 c 24,21,22
 739.758125472 -7.62509448224 739.758125472 -7.62509448224 772 -8 c 24,23,24
 811 -8 811 -8 806 22 c 24,25,-1
 748 143 l 24,26,27
 772.363036023 264.279612153 772.363036023 264.279612153 797 189 c 24,28,29
 851 24 851 24 883 1 c 0,30,31
 943 -43 943 -43 984 17 c 0,32,-1
 898 179 l 0,33,-1
 918 213 l 0,34,35
 941 164 941 164 1069 27 c 0,36,37
 1099 -5 1099 -5 1053 -44 c 0,12,13
160 24 m 0,38,39
 194 -10 194 -10 332 -35 c 24,40,41
 376 -43 376 -43 512 -43 c 0,42,-1
 582 -29 l 0,43,44
 620.158875942 -71.1755997258 620.158875942 -71.1755997258 565 -74 c 24,45,46
 485.28301316 -78.0363031311 485.28301316 -78.0363031311 250 -46 c 24,47,48
 140 -31 140 -31 117 -13 c 24,49,-1
 160 24 l 0,38,39
227 60 m 1,50,-1
 614.514648438 383.387695312 l 1,51,52
 688 458 688 458 689.5 579.5 c 0,53,54
 690 626 690 626 731 626 c 0,55,56
 773 626 773 626 777 609.5 c 128,-1,57
 781 593 781 593 781.026367188 544.6640625 c 0,58,59
 781 538 781 538 781 534 c 0,60,61
 781 489 781 489 689.5 393.5 c 0,62,63
 652 355 652 355 494.5 233 c 0,64,65
 317.654521796 106.54066363 317.654521796 106.54066363 315 104.5 c 0,66,67
 241 47 241 47 227 60 c 1,50,-1
EndSplineSet
Validated: 524321
EndChar
StartChar: M
Encoding: 77 77 5
Width: 1000
Flags: W
LayerCount: 2
Fore
SplineSet
279 118 m 0,0,1
 281 151 281 151 305.5 172.5 c 128,-1,2
 330 194 330 194 363 192 c 0,3,4
 391 191 391 191 406 166 c 128,-1,5
 421 141 421 141 419 110 c 0,6,7
 418 88 418 88 398 76 c 128,-1,8
 378 64 378 64 353 66 c 0,9,10
 322 68 322 68 299.5 81 c 128,-1,11
 277 94 277 94 279 118 c 0,0,1
454 118 m 0,12,13
 456 151 456 151 480.5 172.5 c 128,-1,14
 505 194 505 194 538 192 c 0,15,16
 566 191 566 191 581 166 c 128,-1,17
 596 141 596 141 594 110 c 0,18,19
 593 88 593 88 573 76 c 128,-1,20
 553 64 553 64 528 66 c 0,21,22
 497 68 497 68 474.5 81 c 128,-1,23
 452 94 452 94 454 118 c 0,12,13
-187 94 m 1024,24,-1
1057 -222 m 1024,25,-1
115 24 m 0,26,27
 120 60 120 60 153 33 c 0,28,29
 163 25 163 25 187 1 c 0,30,31
 251 -62 251 -62 284 -73 c 0,32,33
 302 -78 302 -78 317 -74 c 0,34,35
 441 -42 441 -42 524 13.5 c 128,-1,36
 607 69 607 69 715 178 c 0,37,38
 736 202 736 202 722.5 221 c 128,-1,39
 709 240 709 240 673 246 c 0,40,41
 619 255 619 255 541 241 c 128,-1,42
 463 227 463 227 435 226 c 0,43,44
 425 226 425 226 409.5 224.5 c 128,-1,45
 394 223 394 223 382 222 c 128,-1,46
 370 221 370 221 353 220.5 c 128,-1,47
 336 220 336 220 325 220 c 128,-1,48
 314 220 314 220 300 221.5 c 128,-1,49
 286 223 286 223 279 226 c 128,-1,50
 272 229 272 229 264.5 234 c 128,-1,51
 257 239 257 239 258 247 c 128,-1,52
 259 255 259 255 261 266 c 0,53,54
 278 309 278 309 313 341 c 128,-1,55
 348 373 348 373 383 390 c 128,-1,56
 418 407 418 407 462 435 c 128,-1,57
 506 463 506 463 535 496 c 0,58,59
 569 534 569 534 589 583 c 128,-1,60
 609 632 609 632 631 676 c 128,-1,61
 653 720 653 720 693 754 c 0,62,63
 716 774 716 774 728 731 c 0,64,65
 742 683 742 683 728 642 c 0,66,67
 726 639 726 639 725 636 c 0,68,69
 707 598 707 598 681.5 563.5 c 128,-1,70
 656 529 656 529 642 513.5 c 128,-1,71
 628 498 628 498 583.5 457 c 128,-1,72
 539 416 539 416 527 404 c 0,73,74
 504 382 504 382 462 361 c 128,-1,75
 420 340 420 340 392 323 c 128,-1,76
 364 306 364 306 361 284 c 1,77,78
 367 268 367 268 420.5 270.5 c 128,-1,79
 474 273 474 273 543.5 289 c 128,-1,80
 613 305 613 305 631 320 c 0,81,82
 640 328 640 328 644 384 c 0,83,84
 646 413 646 413 653 414 c 0,85,86
 655 414 655 414 657 412 c 0,87,88
 718 369 718 369 748.5 332.5 c 128,-1,89
 779 296 779 296 789 238 c 0,90,91
 811 110 811 110 719 38 c 0,92,93
 600 -55 600 -55 514 -96 c 128,-1,94
 428 -137 428 -137 307 -140 c 0,95,96
 229 -142 229 -142 166.5 -93.5 c 128,-1,97
 104 -45 104 -45 115 24 c 0,26,27
EndSplineSet
Validated: 33
EndChar
StartChar: M
Encoding: 77 77 24
Width: 1000
Flags: HW
LayerCount: 2
Fore
SplineSet
279 118 m 24
 282 162 319 195 363 192 c 24
 402 190 422 149 419 110 c 24
 417 79 384 64 353 66 c 24
 318 68 276 83 279 118 c 24
454 118 m 24
 457 162 494 195 538 192 c 24
 577 190 597 149 594 110 c 24
 592 79 559 64 528 66 c 24
 493 68 451 83 454 118 c 24
-187 94 m 1048
1057 -222 m 1048
115 24 m 24
 128 111 232 -96 317 -74 c 24
 495 -28 586 48 715 178 c 24
 747 210 717 238 673 246 c 24
 579 262 531 231 435 226 c 24
 365 223 235 201 261 266 c 24
 311 391 446 395 535 496 c 24
 618 589 598 674 693 754 c 24
 729 785 745 679 725 636 c 24
 674 529 612 486 527 404 c 24
 470 348 367 334 361 284 c 0
 356.617261215 247.477176788 593.603685106 290.476593505 631 320 c 24
 651 337 636 427 657 412 c 24
 726 363 775 322 789 238 c 24
 803 156 784 89 719 38 c 24
 581 -70 482 -136 307 -140 c 24
 209 -142 100 -73 115 24 c 24
EndSplineSet
Validated: 524321
EndChar
StartChar: bracketleft
Encoding: 91 91 37
Width: 212
Flags: W
LayerCount: 2
Fore
SplineSet
108 433 m 0,0,1
 96 432 96 432 91 456 c 0,2,3
 88.485699217 465.847052619 88.485699217 465.847052619 101 471 c 0,4,5
 122.12 478.04 122.12 478.04 125 455 c 0,6,7
 127.546391753 434.628865979 127.546391753 434.628865979 108 433 c 0,0,1
119 614 m 0,8,9
 56 610 56 610 59 558 c 0,10,11
 61 519 61 519 120 521 c 24,12,13
 163 522 163 522 161 560 c 0,14,15
 158 617 158 617 119 614 c 0,8,9
40 558 m 0,16,17
 42 591 42 591 66.5 612.5 c 128,-1,18
 91 634 91 634 124 632 c 0,19,20
 152 631 152 631 167 606 c 128,-1,21
 182 581 182 581 180 550 c 0,22,23
 179 528 179 528 159 516 c 128,-1,24
 139 504 139 504 114 506 c 0,25,26
 83 508 83 508 60.5 521 c 128,-1,27
 38 534 38 534 40 558 c 0,16,17
EndSplineSet
Validated: 524321
EndChar
StartChar: bracketright
Encoding: 93 93 38
Width: 286
InSpiro: 1
Flags: W
LayerCount: 2
Fore
SplineSet
62 543 m 0,0,1
 50 542 50 542 45 566 c 0,2,3
 42.4853515625 575.846679688 42.4853515625 575.846679688 55 581 c 0,4,5
 76.1201171875 588.040039062 76.1201171875 588.040039062 79 565 c 0,6,7
 81.546875 544.62890625 81.546875 544.62890625 62 543 c 0,0,1
  Spiro
    62 543 o
    51.75 548.25 o
    45 566 o
    46.2428 574.674 o
    55 581 o
    71.56 580.52 o
    79 565 o
    76.0232 549.314 o
    0 0 z
  EndSpiro
193 614 m 0,8,9
 130 610 130 610 133 558 c 0,10,11
 135 519 135 519 194 521 c 24,12,13
 237 522 237 522 235 560 c 0,14,15
 232 617 232 617 193 614 c 0,8,9
  Spiro
    193 614 o
    146.5 598 o
    133 558 o
    149.25 529.25 o
    194 521 o
    225.75 531.25 o
    235 560 o
    223 602 o
    0 0 z
  EndSpiro
114 558 m 0,16,17
 116 591 116 591 140.5 612.5 c 128,-1,18
 165 634 165 634 198 632 c 0,19,20
 226 631 226 631 241 606 c 128,-1,21
 256 581 256 581 254 550 c 0,22,23
 253 528 253 528 233 516 c 128,-1,24
 213 504 213 504 188 506 c 0,25,26
 157 508 157 508 134.5 521 c 128,-1,27
 112 534 112 534 114 558 c 0,16,17
  Spiro
    114 558 o
    121.625 588.125 o
    140.5 612.5 o
    167.125 628.125 o
    198 632 o
    222.75 625 o
    241 606 o
    251.75 579.5 o
    254 550 o
    248.25 530.5 o
    233 516 o
    211.75 507.5 o
    188 506 o
    159.125 510.75 o
    134.5 521 o
    118.125 536.75 o
    0 0 z
  EndSpiro
EndSplineSet
Validated: 524321
EndChar
StartChar: asciicircum
Encoding: 94 94 6
Width: 1000
Flags: W
LayerCount: 2
Fore
SplineSet
463 172 m 1,0,1
 454 168 454 168 441.5 160.5 c 128,-1,2
 429 153 429 153 409 133 c 128,-1,3
 389 113 389 113 393 95 c 0,4,5
 395 87 395 87 404 84 c 128,-1,6
 413 81 413 81 425.5 82.5 c 128,-1,7
 438 84 438 84 450 87 c 128,-1,8
 462 90 462 90 470 93 c 2,9,-1
 478 96 l 1,10,-1
 463 172 l 1,0,1
937 -122 m 1024,11,-1
105 108 m 0,12,13
 150 171 150 171 247 253 c 128,-1,14
 344 335 344 335 391 392 c 0,15,16
 448 461 448 461 474 495 c 128,-1,17
 500 529 500 529 532.5 583 c 128,-1,18
 565 637 565 637 587 694 c 0,19,20
 601 730 601 730 627 712 c 0,21,22
 651 696 651 696 653 662 c 1,23,-1
 651 642 l 1,24,25
 643 617 643 617 563.5 511 c 128,-1,26
 484 405 484 405 462 358 c 0,27,28
 459 352 459 352 474.5 347.5 c 128,-1,29
 490 343 490 343 515 338.5 c 128,-1,30
 540 334 540 334 570 322 c 128,-1,31
 600 310 600 310 626.5 292.5 c 128,-1,32
 653 275 653 275 671 240.5 c 128,-1,33
 689 206 689 206 689 160 c 0,34,35
 689 125 689 125 671.5 108 c 128,-1,36
 654 91 654 91 631 89 c 128,-1,37
 608 87 608 87 579.5 78.5 c 128,-1,38
 551 70 551 70 537 52 c 0,39,40
 524 34 524 34 528 11.5 c 128,-1,41
 532 -11 532 -11 530.5 -31 c 128,-1,42
 529 -51 529 -51 511 -52 c 128,-1,43
 493 -53 493 -53 486 -40.5 c 128,-1,44
 479 -28 479 -28 480.5 -11.5 c 128,-1,45
 482 5 482 5 480 22.5 c 128,-1,46
 478 40 478 40 468 46 c 0,47,48
 454 54 454 54 429 55 c 128,-1,49
 404 56 404 56 383 54 c 128,-1,50
 362 52 362 52 344 53.5 c 128,-1,51
 326 55 326 55 323 63 c 0,52,53
 316 82 316 82 381 157 c 128,-1,54
 446 232 446 232 475 237 c 0,55,56
 491 240 491 240 500.5 225 c 128,-1,57
 510 210 510 210 513.5 190 c 128,-1,58
 517 170 517 170 526.5 153 c 128,-1,59
 536 136 536 136 551 136 c 0,60,61
 571 136 571 136 581.5 136.5 c 128,-1,62
 592 137 592 137 606.5 140.5 c 128,-1,63
 621 144 621 144 627.5 152 c 128,-1,64
 634 160 634 160 633 173 c 0,65,66
 631 209 631 209 585 243.5 c 128,-1,67
 539 278 539 278 481.5 294 c 128,-1,68
 424 310 424 310 388 300 c 0,69,70
 385 299 385 299 324 251 c 0,71,72
 97 73 97 73 96 92 c 0,73,74
 96 96 96 96 105 108 c 0,12,13
464 -134 m 0,75,76
 465 -111 465 -111 481 -95.5 c 128,-1,77
 497 -80 497 -80 528 -82 c 0,78,79
 550 -84 550 -84 563 -102 c 128,-1,80
 576 -120 576 -120 574 -145 c 0,81,82
 570 -192 570 -192 518 -189 c 0,83,84
 494 -187 494 -187 478.5 -173 c 128,-1,85
 463 -159 463 -159 464 -134 c 0,75,76
EndSplineSet
EndChar
StartChar: asciicircum
Encoding: 94 94 6
Width: 728
Flags: W
LayerCount: 2
Fore
SplineSet
433 172 m 1,0,1
 424 168 424 168 411.5 160.5 c 128,-1,2
 399 153 399 153 379 133 c 128,-1,3
 359 113 359 113 363 95 c 0,4,5
 365 87 365 87 374 84 c 128,-1,6
 383 81 383 81 395.5 82.5 c 128,-1,7
 408 84 408 84 420 87 c 128,-1,8
 432 90 432 90 440 93 c 2,9,-1
 448 96 l 1,10,-1
 433 172 l 1,0,1
75 108 m 0,12,13
 120 171 120 171 217 253 c 128,-1,14
 314 335 314 335 361 392 c 0,15,16
 418 461 418 461 444 495 c 128,-1,17
 470 529 470 529 502.5 583 c 128,-1,18
 535 637 535 637 557 694 c 0,19,20
 571 730 571 730 597 712 c 0,21,22
 621 696 621 696 623 662 c 1,23,-1
 621 642 l 1,24,25
 613 617 613 617 533.5 511 c 128,-1,26
 454 405 454 405 432 358 c 0,27,28
 429 352 429 352 444.5 347.5 c 128,-1,29
 460 343 460 343 485 338.5 c 128,-1,30
 510 334 510 334 540 322 c 128,-1,31
 570 310 570 310 596.5 292.5 c 128,-1,32
 623 275 623 275 641 240.5 c 128,-1,33
 659 206 659 206 659 160 c 0,34,35
 659 125 659 125 641.5 108 c 128,-1,36
 624 91 624 91 601 89 c 128,-1,37
 578 87 578 87 549.5 78.5 c 128,-1,38
 521 70 521 70 507 52 c 0,39,40
 494 34 494 34 498 11.5 c 128,-1,41
 502 -11 502 -11 500.5 -31 c 128,-1,42
 499 -51 499 -51 481 -52 c 128,-1,43
 463 -53 463 -53 456 -40.5 c 128,-1,44
 449 -28 449 -28 450.5 -11.5 c 128,-1,45
 452 5 452 5 450 22.5 c 128,-1,46
 448 40 448 40 438 46 c 0,47,48
 424 54 424 54 399 55 c 128,-1,49
 374 56 374 56 353 54 c 128,-1,50
 332 52 332 52 314 53.5 c 128,-1,51
 296 55 296 55 293 63 c 0,52,53
 286 82 286 82 351 157 c 128,-1,54
 416 232 416 232 445 237 c 0,55,56
 461 240 461 240 470.5 225 c 128,-1,57
 480 210 480 210 483.5 190 c 128,-1,58
 487 170 487 170 496.5 153 c 128,-1,59
 506 136 506 136 521 136 c 0,60,61
 541 136 541 136 551.5 136.5 c 128,-1,62
 562 137 562 137 576.5 140.5 c 128,-1,63
 591 144 591 144 597.5 152 c 128,-1,64
 604 160 604 160 603 173 c 0,65,66
 601 209 601 209 555 243.5 c 128,-1,67
 509 278 509 278 451.5 294 c 128,-1,68
 394 310 394 310 358 300 c 0,69,70
 355 299 355 299 294 251 c 0,71,72
 67 73 67 73 66 92 c 0,73,74
 66 96 66 96 75 108 c 0,12,13
434 -134 m 0,75,76
 435 -111 435 -111 451 -95.5 c 128,-1,77
 467 -80 467 -80 498 -82 c 0,78,79
 520 -84 520 -84 533 -102 c 128,-1,80
 546 -120 546 -120 544 -145 c 0,81,82
 540 -192 540 -192 488 -189 c 0,83,84
 464 -187 464 -187 448.5 -173 c 128,-1,85
 433 -159 433 -159 434 -134 c 0,75,76
EndSplineSet
Validated: 33
EndChar
StartChar: asciicircum
Encoding: 94 94 17
Width: 1000
Flags: HW
LayerCount: 2
Fore
SplineSet
463 172 m 29
 463 172 385 135 393 95 c 28
 399 65 478 96 478 96 c 29
 463 172 l 29
937 -122 m 1052
105 108 m 4
 190.748898739 227.528767939 291 270 391 392 c 28
 480 500 541.355572942 573.664692303 587 694 c 4
 609 752 665.7890625 690.065429688 651 642 c 4
 635 590 504.869140625 449.138671875 462 358 c 4
 449.590820312 331.618164062 687.078423681 356.000784551 689 160 c 4
 690 58 582 109 537 52 c 28
 512 20 552.190429688 -48.94921875 511 -52 c 4
 457 -56 498.665039062 28.4404296875 468 46 c 4
 426.409179688 69.81640625 332 38 323 63 c 4
 314.167276911 87.5353419139 436 230 475 237 c 4
 523.26953125 245.6640625 505 136 551 136 c 4
 589.079101562 136 635 136 633 173 c 4
 628.862522733 249.543329441 461 321 388 300 c 28
 377.500976562 296.958984375 39 16 105 108 c 4
464 -134 m 0
 465.460149416 -106.873113638 484.002353479 -78.9656795503 528 -82 c 0
 557 -84 577 -111 574 -145 c 0
 571.269627201 -175.944225057 548.995646283 -191.066376419 518 -189 c 0
 488 -187 462.120724232 -168.913481916 464 -134 c 0
EndSplineSet
Validated: 524321
EndChar
StartChar: underscore
Encoding: 95 95 34
Width: 582
Flags: W
LayerCount: 2
Fore
SplineSet
487 204 m 0,0,1
 424 200 424 200 427 148 c 0,2,3
 429 109 429 109 488 111 c 24,4,5
 531 112 531 112 529 150 c 0,6,7
 526 207 526 207 487 204 c 0,0,1
408 148 m 0,8,9
 410 181 410 181 434.5 202.5 c 128,-1,10
 459 224 459 224 492 222 c 0,11,12
 520 221 520 221 535 196 c 128,-1,13
 550 171 550 171 548 140 c 0,14,15
 547 118 547 118 527 106 c 128,-1,16
 507 94 507 94 482 96 c 0,17,18
 451 98 451 98 428.5 111 c 128,-1,19
 406 124 406 124 408 148 c 0,8,9
147 204 m 0,20,21
 84 200 84 200 87 148 c 0,22,23
 89 109 89 109 148 111 c 24,24,25
 191 112 191 112 189 150 c 0,26,27
 186 207 186 207 147 204 c 0,20,21
68 148 m 0,28,29
 70 181 70 181 94.5 202.5 c 128,-1,30
 119 224 119 224 152 222 c 0,31,32
 180 221 180 221 195 196 c 128,-1,33
 210 171 210 171 208 140 c 0,34,35
 207 118 207 118 187 106 c 128,-1,36
 167 94 167 94 142 96 c 0,37,38
 111 98 111 98 88.5 111 c 128,-1,39
 66 124 66 124 68 148 c 0,28,29
317 204 m 0,40,41
 254 200 254 200 257 148 c 0,42,43
 259 109 259 109 318 111 c 24,44,45
 361 112 361 112 359 150 c 0,46,47
 356 207 356 207 317 204 c 0,40,41
238 148 m 0,48,49
 240 181 240 181 264.5 202.5 c 128,-1,50
 289 224 289 224 322 222 c 0,51,52
 350 221 350 221 365 196 c 128,-1,53
 380 171 380 171 378 140 c 0,54,55
 377 118 377 118 357 106 c 128,-1,56
 337 94 337 94 312 96 c 0,57,58
 281 98 281 98 258.5 111 c 128,-1,59
 236 124 236 124 238 148 c 0,48,49
EndSplineSet
Validated: 2081
EndChar
StartChar: a
Encoding: 97 97 7
Width: 1000
Flags: W
LayerCount: 2
Fore
SplineSet
773 46 m 1024,0,-1
554 546 m 1,1,-1
 361 58 l 1,2,-1
 773 46 l 1,3,-1
 554 546 l 1,1,-1
293 0 m 0,4,5
 276 0 276 0 330 167 c 128,-1,6
 384 334 384 334 453 502 c 128,-1,7
 522 670 522 670 541 672 c 0,8,9
 568 675 568 675 688 454 c 0,10,11
 817 215 817 215 863 81 c 0,12,13
 879 35 879 35 875 24 c 0,14,15
 868 8 868 8 813.5 -0.5 c 128,-1,16
 759 -9 759 -9 678.5 -9.5 c 128,-1,17
 598 -10 598 -10 522.5 -8 c 128,-1,18
 447 -6 447 -6 376 -3 c 128,-1,19
 305 0 305 0 293 0 c 0,4,5
EndSplineSet
EndChar
StartChar: a
Encoding: 97 97 7
Width: 750
Flags: W
LayerCount: 2
Fore
SplineSet
573 46 m 1024,0,-1
354 546 m 1,1,-1
 161 58 l 1,2,-1
 573 46 l 1,3,-1
 354 546 l 1,1,-1
93 0 m 0,4,5
 76 0 76 0 130 167 c 128,-1,6
 184 334 184 334 253 502 c 128,-1,7
 322 670 322 670 341 672 c 0,8,9
 368 675 368 675 488 454 c 0,10,11
 617 215 617 215 663 81 c 0,12,13
 679 35 679 35 675 24 c 0,14,15
 668 8 668 8 613.5 -0.5 c 128,-1,16
 559 -9 559 -9 478.5 -9.5 c 128,-1,17
 398 -10 398 -10 322.5 -8 c 128,-1,18
 247 -6 247 -6 176 -3 c 128,-1,19
 105 0 105 0 93 0 c 0,4,5
EndSplineSet
Validated: 33
EndChar
StartChar: a
Encoding: 97 97 0
Width: 1000
Flags: HW
LayerCount: 2
Fore
SplineSet
773 46 m 1025
554 546 m 1
 361 58 l 1
 773 46 l 1
 554 546 l 1
293 0 m 0
 257 0 501 668 541 672 c 0
 586.380678053 676.538067805 895 74 875 24 c 0
 851.849501647 -33.8762458834 361.363438165 0 293 0 c 0
EndSplineSet
Validated: 524321
EndChar
StartChar: b
Encoding: 98 98 8
Width: 1000
Flags: W
LayerCount: 2
Fore
SplineSet
464 -134 m 0,0,1
 465 -111 465 -111 481 -95.5 c 128,-1,2
 497 -80 497 -80 528 -82 c 0,3,4
 550 -84 550 -84 563 -102 c 128,-1,5
 576 -120 576 -120 574 -145 c 0,6,7
 570 -192 570 -192 518 -189 c 0,8,9
 494 -187 494 -187 478.5 -173 c 128,-1,10
 463 -159 463 -159 464 -134 c 0,0,1
330 -204 m 0,11,12
 317 -218 317 -218 320 -212 c 0,13,14
 331 -188 331 -188 403 -107 c 0,15,16
 461 -40 461 -40 490 -22 c 0,17,18
 538 8 538 8 618 1 c 0,19,20
 652 -2 652 -2 653 -9 c 0,21,22
 654 -14 654 -14 630 -18 c 0,23,24
 480 -42 480 -42 330 -204 c 0,11,12
463 172 m 1,25,26
 454 168 454 168 441.5 160.5 c 128,-1,27
 429 153 429 153 409 133 c 128,-1,28
 389 113 389 113 393 95 c 0,29,30
 395 87 395 87 404 84 c 128,-1,31
 413 81 413 81 425.5 82.5 c 128,-1,32
 438 84 438 84 450 87 c 128,-1,33
 462 90 462 90 470 93 c 2,34,-1
 478 96 l 1,35,-1
 463 172 l 1,25,26
937 -122 m 1024,36,-1
105 108 m 0,37,38
 150 171 150 171 247 253 c 128,-1,39
 344 335 344 335 391 392 c 0,40,41
 448 461 448 461 474 495 c 128,-1,42
 500 529 500 529 532.5 583 c 128,-1,43
 565 637 565 637 587 694 c 0,44,45
 601 730 601 730 627 712 c 0,46,47
 651 696 651 696 653 662 c 1,48,-1
 651 642 l 1,49,50
 643 617 643 617 563.5 511 c 128,-1,51
 484 405 484 405 462 358 c 0,52,53
 459 352 459 352 474.5 347.5 c 128,-1,54
 490 343 490 343 515 338.5 c 128,-1,55
 540 334 540 334 570 322 c 128,-1,56
 600 310 600 310 626.5 292.5 c 128,-1,57
 653 275 653 275 671 240.5 c 128,-1,58
 689 206 689 206 689 160 c 0,59,60
 689 125 689 125 671.5 108 c 128,-1,61
 654 91 654 91 631 89 c 128,-1,62
 608 87 608 87 579.5 78.5 c 128,-1,63
 551 70 551 70 537 52 c 0,64,65
 524 34 524 34 528 11.5 c 128,-1,66
 532 -11 532 -11 530.5 -31 c 128,-1,67
 529 -51 529 -51 511 -52 c 128,-1,68
 493 -53 493 -53 486 -40.5 c 128,-1,69
 479 -28 479 -28 480.5 -11.5 c 128,-1,70
 482 5 482 5 480 22.5 c 128,-1,71
 478 40 478 40 468 46 c 0,72,73
 454 54 454 54 429 55 c 128,-1,74
 404 56 404 56 383 54 c 128,-1,75
 362 52 362 52 344 53.5 c 128,-1,76
 326 55 326 55 323 63 c 0,77,78
 316 82 316 82 381 157 c 128,-1,79
 446 232 446 232 475 237 c 0,80,81
 491 240 491 240 500.5 225 c 128,-1,82
 510 210 510 210 513.5 190 c 128,-1,83
 517 170 517 170 526.5 153 c 128,-1,84
 536 136 536 136 551 136 c 0,85,86
 571 136 571 136 581.5 136.5 c 128,-1,87
 592 137 592 137 606.5 140.5 c 128,-1,88
 621 144 621 144 627.5 152 c 128,-1,89
 634 160 634 160 633 173 c 0,90,91
 631 209 631 209 585 243.5 c 128,-1,92
 539 278 539 278 481.5 294 c 128,-1,93
 424 310 424 310 388 300 c 0,94,95
 385 299 385 299 324 251 c 0,96,97
 97 73 97 73 96 92 c 0,98,99
 96 96 96 96 105 108 c 0,37,38
EndSplineSet
EndChar
StartChar: b
Encoding: 98 98 8
Width: 740
Flags: W
LayerCount: 2
Fore
SplineSet
442 -134 m 0,0,1
 443 -111 443 -111 459 -95.5 c 128,-1,2
 475 -80 475 -80 506 -82 c 0,3,4
 528 -84 528 -84 541 -102 c 128,-1,5
 554 -120 554 -120 552 -145 c 0,6,7
 548 -192 548 -192 496 -189 c 0,8,9
 472 -187 472 -187 456.5 -173 c 128,-1,10
 441 -159 441 -159 442 -134 c 0,0,1
308 -204 m 0,11,12
 295 -218 295 -218 298 -212 c 0,13,14
 309 -188 309 -188 381 -107 c 0,15,16
 439 -40 439 -40 468 -22 c 0,17,18
 516 8 516 8 596 1 c 0,19,20
 630 -2 630 -2 631 -9 c 0,21,22
 632 -14 632 -14 608 -18 c 0,23,24
 458 -42 458 -42 308 -204 c 0,11,12
441 172 m 1,25,26
 432 168 432 168 419.5 160.5 c 128,-1,27
 407 153 407 153 387 133 c 128,-1,28
 367 113 367 113 371 95 c 0,29,30
 373 87 373 87 382 84 c 128,-1,31
 391 81 391 81 403.5 82.5 c 128,-1,32
 416 84 416 84 428 87 c 128,-1,33
 440 90 440 90 448 93 c 2,34,-1
 456 96 l 1,35,-1
 441 172 l 1,25,26
83 108 m 0,37,38
 128 171 128 171 225 253 c 128,-1,39
 322 335 322 335 369 392 c 0,40,41
 426 461 426 461 452 495 c 128,-1,42
 478 529 478 529 510.5 583 c 128,-1,43
 543 637 543 637 565 694 c 0,44,45
 579 730 579 730 605 712 c 0,46,47
 629 696 629 696 631 662 c 1,48,-1
 629 642 l 1,49,50
 621 617 621 617 541.5 511 c 128,-1,51
 462 405 462 405 440 358 c 0,52,53
 437 352 437 352 452.5 347.5 c 128,-1,54
 468 343 468 343 493 338.5 c 128,-1,55
 518 334 518 334 548 322 c 128,-1,56
 578 310 578 310 604.5 292.5 c 128,-1,57
 631 275 631 275 649 240.5 c 128,-1,58
 667 206 667 206 667 160 c 0,59,60
 667 125 667 125 649.5 108 c 128,-1,61
 632 91 632 91 609 89 c 128,-1,62
 586 87 586 87 557.5 78.5 c 128,-1,63
 529 70 529 70 515 52 c 0,64,65
 502 34 502 34 506 11.5 c 128,-1,66
 510 -11 510 -11 508.5 -31 c 128,-1,67
 507 -51 507 -51 489 -52 c 128,-1,68
 471 -53 471 -53 464 -40.5 c 128,-1,69
 457 -28 457 -28 458.5 -11.5 c 128,-1,70
 460 5 460 5 458 22.5 c 128,-1,71
 456 40 456 40 446 46 c 0,72,73
 432 54 432 54 407 55 c 128,-1,74
 382 56 382 56 361 54 c 128,-1,75
 340 52 340 52 322 53.5 c 128,-1,76
 304 55 304 55 301 63 c 0,77,78
 294 82 294 82 359 157 c 128,-1,79
 424 232 424 232 453 237 c 0,80,81
 469 240 469 240 478.5 225 c 128,-1,82
 488 210 488 210 491.5 190 c 128,-1,83
 495 170 495 170 504.5 153 c 128,-1,84
 514 136 514 136 529 136 c 0,85,86
 549 136 549 136 559.5 136.5 c 128,-1,87
 570 137 570 137 584.5 140.5 c 128,-1,88
 599 144 599 144 605.5 152 c 128,-1,89
 612 160 612 160 611 173 c 0,90,91
 609 209 609 209 563 243.5 c 128,-1,92
 517 278 517 278 459.5 294 c 128,-1,93
 402 310 402 310 366 300 c 0,94,95
 363 299 363 299 302 251 c 0,96,97
 75 73 75 73 74 92 c 0,98,99
 74 96 74 96 83 108 c 0,37,38
EndSplineSet
Validated: 37
EndChar
StartChar: b
Encoding: 98 98 18
Width: 1000
Flags: HW
LayerCount: 2
Fore
SplineSet
464 -134 m 0
 465.460149416 -106.873113638 484.002353479 -78.9656795503 528 -82 c 0
 557 -84 577 -111 574 -145 c 0
 571.269627201 -175.944225057 548.995646283 -191.066376419 518 -189 c 0
 488 -187 462.120724232 -168.913481916 464 -134 c 0
330 -204 m 0
 277.6328125 -260.478515625 429 -60 490 -22 c 24
 560 21 711.294921875 -4.765625 630 -18 c 0
 544 -32 436.3984375 -89.2509765625 330 -204 c 0
463 172 m 25
 463 172 385 135 393 95 c 24
 399 65 478 96 478 96 c 25
 463 172 l 25
937 -122 m 1048
105 108 m 0
 190.748898739 227.528767939 291 270 391 392 c 24
 480 500 541.355572942 573.664692303 587 694 c 0
 609 752 665.7890625 690.065429688 651 642 c 0
 635 590 504.869140625 449.138671875 462 358 c 0
 449.590820312 331.618164062 687.078423681 356.000784551 689 160 c 0
 690 58 582 109 537 52 c 24
 512 20 552.190429688 -48.94921875 511 -52 c 0
 457 -56 498.665039062 28.4404296875 468 46 c 0
 426.409179688 69.81640625 332 38 323 63 c 0
 314.167276911 87.5353419139 436 230 475 237 c 0
 523.26953125 245.6640625 505 136 551 136 c 0
 589.079101562 136 635 136 633 173 c 0
 628.862522733 249.543329441 461 321 388 300 c 24
 377.500976562 296.958984375 39 16 105 108 c 0
EndSplineSet
Validated: 524325
EndChar
StartChar: c
Encoding: 99 99 31
Width: 534
Flags: W
LayerCount: 2
Fore
SplineSet
144 -212 m 0,0,1
 146 -179 146 -179 170.5 -157.5 c 128,-1,2
 195 -136 195 -136 228 -138 c 0,3,4
 256 -139 256 -139 271 -164 c 128,-1,5
 286 -189 286 -189 284 -220 c 0,6,7
 283 -242 283 -242 263 -254 c 128,-1,8
 243 -266 243 -266 218 -264 c 0,9,10
 187 -262 187 -262 164.5 -249 c 128,-1,11
 142 -236 142 -236 144 -212 c 0,0,1
124 113 m 0,12,13
 147 185 147 185 213 212 c 0,14,15
 279.858389913 240.099903007 279.858389913 240.099903007 354 113 c 0,16,17
 368 90 368 90 313 44 c 0,18,-1
 399 -41 l 24,19,20
 371 -121 371 -121 251 -112 c 0,21,22
 55 -96 55 -96 99 -72 c 24,23,24
 158.63935898 -40.1237908901 158.63935898 -40.1237908901 231 -62 c 0,25,26
 318 -88 318 -88 309 -32 c 24,27,28
 305 -8 305 -8 245 10 c 0,29,-1
 136 14 l 0,30,-1
 256 46 l 0,31,32
 299 67 299 67 301 100 c 0,33,34
 308 196 308 196 231 168 c 0,35,36
 130 132 130 132 124 113 c 0,12,13
226 266 m 1,37,38
 312 443 312 443 369 608 c 0,39,40
 383 649 383 649 435.42578125 557.247070312 c 1,41,42
 331.498368382 385.161120843 331.498368382 385.161120843 300.5 342.5 c 0,43,44
 251 276 251 276 226 266 c 1,37,38
EndSplineSet
EndChar
StartChar: d
Encoding: 100 100 9
Width: 1000
Flags: W
LayerCount: 2
Fore
SplineSet
370 -184 m 0,0,1
 357 -198 357 -198 360 -192 c 0,2,3
 371 -168 371 -168 443 -87 c 0,4,5
 501 -20 501 -20 530 -2 c 0,6,7
 578 28 578 28 658 21 c 0,8,9
 692 18 692 18 693 11 c 0,10,11
 694 6 694 6 670 2 c 0,12,13
 520 -22 520 -22 370 -184 c 0,0,1
517 306 m 0,14,15
 491 309 491 309 460.5 263 c 128,-1,16
 430 217 430 217 435 200 c 0,17,18
 440 182 440 182 485.5 182 c 128,-1,19
 531 182 531 182 536 194 c 0,20,21
 543 213 543 213 539.5 238 c 128,-1,22
 536 263 536 263 528.5 284 c 128,-1,23
 521 305 521 305 517 306 c 0,14,15
183 122 m 0,24,25
 142 107 142 107 152 152 c 0,26,27
 169 229 169 229 304 420 c 2,28,-1
 349 482 l 2,29,30
 420 575 420 575 505 647.5 c 128,-1,31
 590 720 590 720 637 718 c 0,32,33
 667 717 667 717 701.5 642.5 c 128,-1,34
 736 568 736 568 758 474 c 128,-1,35
 780 380 780 380 789.5 290.5 c 128,-1,36
 799 201 799 201 779 170 c 0,37,38
 768 151 768 151 689.5 151.5 c 128,-1,39
 611 152 611 152 597 146 c 0,40,41
 584 137 584 137 583.5 112.5 c 128,-1,42
 583 88 583 88 588 64.5 c 128,-1,43
 593 41 593 41 588.5 21 c 128,-1,44
 584 1 584 1 563 0 c 0,45,46
 538 -2 538 -2 537 25.5 c 128,-1,47
 536 53 536 53 537 90 c 128,-1,48
 538 127 538 127 518 140 c 0,49,50
 498 152 498 152 465.5 148.5 c 128,-1,51
 433 145 433 145 402 147 c 128,-1,52
 371 149 371 149 371 166 c 0,53,54
 370 193 370 193 403 249.5 c 128,-1,55
 436 306 436 306 473 350.5 c 128,-1,56
 510 395 510 395 521 394 c 0,57,58
 547 391 547 391 558.5 345.5 c 128,-1,59
 570 300 570 300 578 255 c 128,-1,60
 586 210 586 210 601 208 c 0,61,62
 629 207 629 207 663 207.5 c 128,-1,63
 697 208 697 208 722.5 220.5 c 128,-1,64
 748 233 748 233 743 256 c 0,65,66
 740 270 740 270 733 301.5 c 128,-1,67
 726 333 726 333 720.5 355.5 c 128,-1,68
 715 378 715 378 707 411 c 128,-1,69
 699 444 699 444 692 468 c 128,-1,70
 685 492 685 492 675.5 520 c 128,-1,71
 666 548 666 548 657 566.5 c 128,-1,72
 648 585 648 585 637.5 601 c 128,-1,73
 627 617 627 617 615 623.5 c 128,-1,74
 603 630 603 630 591 627 c 0,75,76
 542 616 542 616 473.5 536.5 c 128,-1,77
 405 457 405 457 350.5 368 c 128,-1,78
 296 279 296 279 246.5 203 c 128,-1,79
 197 127 197 127 183 122 c 0,24,25
EndSplineSet
EndChar
StartChar: d
Encoding: 100 100 9
Width: 810
Flags: W
LayerCount: 2
Fore
SplineSet
292 -184 m 0,0,1
 279 -198 279 -198 282 -192 c 0,2,3
 293 -168 293 -168 365 -87 c 0,4,5
 423 -20 423 -20 452 -2 c 0,6,7
 500 28 500 28 580 21 c 0,8,9
 614 18 614 18 615 11 c 0,10,11
 616 6 616 6 592 2 c 0,12,13
 442 -22 442 -22 292 -184 c 0,0,1
439 306 m 0,14,15
 413 309 413 309 382.5 263 c 128,-1,16
 352 217 352 217 357 200 c 0,17,18
 362 182 362 182 407.5 182 c 128,-1,19
 453 182 453 182 458 194 c 0,20,21
 465 213 465 213 461.5 238 c 128,-1,22
 458 263 458 263 450.5 284 c 128,-1,23
 443 305 443 305 439 306 c 0,14,15
105 122 m 0,24,25
 64 107 64 107 74 152 c 0,26,27
 91 229 91 229 226 420 c 2,28,-1
 271 482 l 2,29,30
 342 575 342 575 427 647.5 c 128,-1,31
 512 720 512 720 559 718 c 0,32,33
 589 717 589 717 623.5 642.5 c 128,-1,34
 658 568 658 568 680 474 c 128,-1,35
 702 380 702 380 711.5 290.5 c 128,-1,36
 721 201 721 201 701 170 c 0,37,38
 690 151 690 151 611.5 151.5 c 128,-1,39
 533 152 533 152 519 146 c 0,40,41
 506 137 506 137 505.5 112.5 c 128,-1,42
 505 88 505 88 510 64.5 c 128,-1,43
 515 41 515 41 510.5 21 c 128,-1,44
 506 1 506 1 485 0 c 0,45,46
 460 -2 460 -2 459 25.5 c 128,-1,47
 458 53 458 53 459 90 c 128,-1,48
 460 127 460 127 440 140 c 0,49,50
 420 152 420 152 387.5 148.5 c 128,-1,51
 355 145 355 145 324 147 c 128,-1,52
 293 149 293 149 293 166 c 0,53,54
 292 193 292 193 325 249.5 c 128,-1,55
 358 306 358 306 395 350.5 c 128,-1,56
 432 395 432 395 443 394 c 0,57,58
 469 391 469 391 480.5 345.5 c 128,-1,59
 492 300 492 300 500 255 c 128,-1,60
 508 210 508 210 523 208 c 0,61,62
 551 207 551 207 585 207.5 c 128,-1,63
 619 208 619 208 644.5 220.5 c 128,-1,64
 670 233 670 233 665 256 c 0,65,66
 662 270 662 270 655 301.5 c 128,-1,67
 648 333 648 333 642.5 355.5 c 128,-1,68
 637 378 637 378 629 411 c 128,-1,69
 621 444 621 444 614 468 c 128,-1,70
 607 492 607 492 597.5 520 c 128,-1,71
 588 548 588 548 579 566.5 c 128,-1,72
 570 585 570 585 559.5 601 c 128,-1,73
 549 617 549 617 537 623.5 c 128,-1,74
 525 630 525 630 513 627 c 0,75,76
 464 616 464 616 395.5 536.5 c 128,-1,77
 327 457 327 457 272.5 368 c 128,-1,78
 218 279 218 279 168.5 203 c 128,-1,79
 119 127 119 127 105 122 c 0,24,25
EndSplineSet
Validated: 37
EndChar
StartChar: d
Encoding: 100 100 14
Width: 1000
Flags: HW
LayerCount: 2
Fore
SplineSet
370 -184 m 4
 317.632345115 -240.478100979 469 -40 530 -2 c 28
 600 41 751.294921875 15.234375 670 2 c 4
 584 -12 476.398088526 -69.2505043238 370 -184 c 4
517 306 m 4
 478.659179688 310.79296875 430.206054688 217.8046875 435 200 c 4
 442 174 530 180 536 194 c 4
 550.580078125 228.020507812 525 305 517 306 c 4
183 122 m 4
 76 84 255 359 349 482 c 28
 437 598 571.044441124 721.140740899 637 718 c 4
 721 714 829 254 779 170 c 4
 759.137695312 136.630859375 621.186523438 162.125 597 146 c 4
 558 120 624 4 563 0 c 28
 505 -4 566.170731122 107.44879936 518 140 c 4
 484.596910786 162.572019018 371.781067077 126.780008992 371 166 c 4
 369.83422391 224.537517594 498.750292026 396.224970797 521 394 c 4
 581 388 563 212 601 208 c 4
 651.709960938 202.662109375 754.443607476 206.674105706 743 256 c 4
 714 381 665.778320312 644.2109375 591 627 c 4
 448.356587412 594.169269802 229.548072226 138.531091071 183 122 c 4
EndSplineSet
Validated: 524325
EndChar
StartChar: e
Encoding: 101 101 10
Width: 1000
Flags: W
LayerCount: 2
Fore
SplineSet
87 44 m 0,0,1
 87 91 87 91 115.5 156 c 128,-1,2
 144 221 144 221 165.5 255 c 128,-1,3
 187 289 187 289 250 380 c 0,4,5
 252 384 252 384 253 385.5 c 128,-1,6
 254 387 254 387 256 390 c 128,-1,7
 258 393 258 393 259.5 395.5 c 128,-1,8
 261 398 261 398 263 400 c 0,9,10
 284 430 284 430 309 477 c 128,-1,11
 334 524 334 524 352 556.5 c 128,-1,12
 370 589 370 589 395 621 c 128,-1,13
 420 653 420 653 453.5 669 c 128,-1,14
 487 685 487 685 531 684 c 0,15,16
 568 683 568 683 598.5 668.5 c 128,-1,17
 629 654 629 654 648.5 636 c 128,-1,18
 668 618 668 618 689 582 c 128,-1,19
 710 546 710 546 720 523 c 128,-1,20
 730 500 730 500 749 451.5 c 128,-1,21
 768 403 768 403 777 382 c 0,22,23
 785 364 785 364 800.5 328.5 c 128,-1,24
 816 293 816 293 826 270 c 128,-1,25
 836 247 836 247 850 213 c 128,-1,26
 864 179 864 179 871 155.5 c 128,-1,27
 878 132 878 132 885.5 103.5 c 128,-1,28
 893 75 893 75 893 56 c 128,-1,29
 893 37 893 37 889 19.5 c 128,-1,30
 885 2 885 2 872 -7.5 c 128,-1,31
 859 -17 859 -17 839 -20 c 0,32,33
 763 -30 763 -30 719.5 -34 c 128,-1,34
 676 -38 676 -38 612.5 -39.5 c 128,-1,35
 549 -41 549 -41 508 -29.5 c 128,-1,36
 467 -18 467 -18 445 6 c 0,37,38
 427 26 427 26 420 64 c 128,-1,39
 413 102 413 102 417 158 c 128,-1,40
 421 214 421 214 428 261.5 c 128,-1,41
 435 309 435 309 447 378 c 0,42,43
 451 399 451 399 480.5 393 c 128,-1,44
 510 387 510 387 515 366 c 0,45,46
 525 322 525 322 529 272 c 128,-1,47
 533 222 533 222 534 193.5 c 128,-1,48
 535 165 535 165 542 138 c 128,-1,49
 549 111 549 111 569.5 97 c 128,-1,50
 590 83 590 83 629 78 c 0,51,52
 676 72 676 72 703 82 c 128,-1,53
 730 92 730 92 738 111 c 128,-1,54
 746 130 746 130 743 159.5 c 128,-1,55
 740 189 740 189 731.5 214 c 128,-1,56
 723 239 723 239 712.5 270 c 128,-1,57
 702 301 702 301 699 314 c 0,58,59
 691 354 691 354 686 373 c 128,-1,60
 681 392 681 392 670.5 428 c 128,-1,61
 660 464 660 464 649 483 c 128,-1,62
 638 502 638 502 621.5 523 c 128,-1,63
 605 544 605 544 583.5 551.5 c 128,-1,64
 562 559 562 559 535 556 c 0,65,66
 499 552 499 552 477 545 c 128,-1,67
 455 538 455 538 436 519.5 c 128,-1,68
 417 501 417 501 406.5 486 c 128,-1,69
 396 471 396 471 371 431 c 128,-1,70
 346 391 346 391 325 360 c 0,71,72
 316 346 316 346 245.5 231.5 c 128,-1,73
 175 117 175 117 131 60 c 128,-1,74
 87 3 87 3 87 44 c 0,0,1
EndSplineSet
EndChar
StartChar: e
Encoding: 101 101 10
Width: 918
Flags: W
LayerCount: 2
Fore
SplineSet
67 44 m 0,0,1
 67 91 67 91 95.5 156 c 128,-1,2
 124 221 124 221 145.5 255 c 128,-1,3
 167 289 167 289 230 380 c 0,4,5
 232 384 232 384 233 385.5 c 128,-1,6
 234 387 234 387 236 390 c 128,-1,7
 238 393 238 393 239.5 395.5 c 128,-1,8
 241 398 241 398 243 400 c 0,9,10
 264 430 264 430 289 477 c 128,-1,11
 314 524 314 524 332 556.5 c 128,-1,12
 350 589 350 589 375 621 c 128,-1,13
 400 653 400 653 433.5 669 c 128,-1,14
 467 685 467 685 511 684 c 0,15,16
 548 683 548 683 578.5 668.5 c 128,-1,17
 609 654 609 654 628.5 636 c 128,-1,18
 648 618 648 618 669 582 c 128,-1,19
 690 546 690 546 700 523 c 128,-1,20
 710 500 710 500 729 451.5 c 128,-1,21
 748 403 748 403 757 382 c 0,22,23
 765 364 765 364 780.5 328.5 c 128,-1,24
 796 293 796 293 806 270 c 128,-1,25
 816 247 816 247 830 213 c 128,-1,26
 844 179 844 179 851 155.5 c 128,-1,27
 858 132 858 132 865.5 103.5 c 128,-1,28
 873 75 873 75 873 56 c 128,-1,29
 873 37 873 37 869 19.5 c 128,-1,30
 865 2 865 2 852 -7.5 c 128,-1,31
 839 -17 839 -17 819 -20 c 0,32,33
 743 -30 743 -30 699.5 -34 c 128,-1,34
 656 -38 656 -38 592.5 -39.5 c 128,-1,35
 529 -41 529 -41 488 -29.5 c 128,-1,36
 447 -18 447 -18 425 6 c 0,37,38
 407 26 407 26 400 64 c 128,-1,39
 393 102 393 102 397 158 c 128,-1,40
 401 214 401 214 408 261.5 c 128,-1,41
 415 309 415 309 427 378 c 0,42,43
 431 399 431 399 460.5 393 c 128,-1,44
 490 387 490 387 495 366 c 0,45,46
 505 322 505 322 509 272 c 128,-1,47
 513 222 513 222 514 193.5 c 128,-1,48
 515 165 515 165 522 138 c 128,-1,49
 529 111 529 111 549.5 97 c 128,-1,50
 570 83 570 83 609 78 c 0,51,52
 656 72 656 72 683 82 c 128,-1,53
 710 92 710 92 718 111 c 128,-1,54
 726 130 726 130 723 159.5 c 128,-1,55
 720 189 720 189 711.5 214 c 128,-1,56
 703 239 703 239 692.5 270 c 128,-1,57
 682 301 682 301 679 314 c 0,58,59
 671 354 671 354 666 373 c 128,-1,60
 661 392 661 392 650.5 428 c 128,-1,61
 640 464 640 464 629 483 c 128,-1,62
 618 502 618 502 601.5 523 c 128,-1,63
 585 544 585 544 563.5 551.5 c 128,-1,64
 542 559 542 559 515 556 c 0,65,66
 479 552 479 552 457 545 c 128,-1,67
 435 538 435 538 416 519.5 c 128,-1,68
 397 501 397 501 386.5 486 c 128,-1,69
 376 471 376 471 351 431 c 128,-1,70
 326 391 326 391 305 360 c 0,71,72
 296 346 296 346 225.5 231.5 c 128,-1,73
 155 117 155 117 111 60 c 128,-1,74
 67 3 67 3 67 44 c 0,0,1
EndSplineSet
Validated: 33
EndChar
StartChar: e
Encoding: 101 101 1
Width: 1000
Flags: H
LayerCount: 2
Back
Fore
SplineSet
87 44 m 0
 87 150 175 272 263 400 c 24
 350 525 378 689 531 684 c 24
 683 679 717.327520885 522.139913074 777 382 c 0
 843 227 963 -4 839 -20 c 0
 690.596679688 -39.1484375 506.153959217 -62.4924343235 445 6 c 0
 395 62 419.718448257 225.223310238 447 378 c 0
 452 406 508.686523438 393.461914062 515 366 c 0
 555 192 493.657165508 95.9536413102 629 78 c 0
 825 52 714.64453125 240.922851562 699 314 c 0
 675 426.106445312 645.58046079 568.901053759 535 556 c 0
 415 542 421 498 325 360 c 0
 271.977038984 283.779493539 87 -48.1954445729 87 44 c 0
EndSplineSet
Validated: 524321
EndChar
StartChar: f
Encoding: 102 102 11
Width: 1000
Flags: W
LayerCount: 2
Fore
SplineSet
517 306 m 0,0,1
 491 309 491 309 460.5 263 c 128,-1,2
 430 217 430 217 435 200 c 0,3,4
 440 182 440 182 485.5 182 c 128,-1,5
 531 182 531 182 536 194 c 0,6,7
 543 213 543 213 539.5 238 c 128,-1,8
 536 263 536 263 528.5 284 c 128,-1,9
 521 305 521 305 517 306 c 0,0,1
183 122 m 0,10,11
 142 107 142 107 152 152 c 0,12,13
 169 229 169 229 304 420 c 2,14,-1
 349 482 l 2,15,16
 420 575 420 575 505 647.5 c 128,-1,17
 590 720 590 720 637 718 c 0,18,19
 667 717 667 717 701.5 642.5 c 128,-1,20
 736 568 736 568 758 474 c 128,-1,21
 780 380 780 380 789.5 290.5 c 128,-1,22
 799 201 799 201 779 170 c 0,23,24
 768 151 768 151 689.5 151.5 c 128,-1,25
 611 152 611 152 597 146 c 0,26,27
 584 137 584 137 583.5 112.5 c 128,-1,28
 583 88 583 88 588 64.5 c 128,-1,29
 593 41 593 41 588.5 21 c 128,-1,30
 584 1 584 1 563 0 c 0,31,32
 538 -2 538 -2 537 25.5 c 128,-1,33
 536 53 536 53 537 90 c 128,-1,34
 538 127 538 127 518 140 c 0,35,36
 498 152 498 152 465.5 148.5 c 128,-1,37
 433 145 433 145 402 147 c 128,-1,38
 371 149 371 149 371 166 c 0,39,40
 370 193 370 193 403 249.5 c 128,-1,41
 436 306 436 306 473 350.5 c 128,-1,42
 510 395 510 395 521 394 c 0,43,44
 547 391 547 391 558.5 345.5 c 128,-1,45
 570 300 570 300 578 255 c 128,-1,46
 586 210 586 210 601 208 c 0,47,48
 629 207 629 207 663 207.5 c 128,-1,49
 697 208 697 208 722.5 220.5 c 128,-1,50
 748 233 748 233 743 256 c 0,51,52
 740 270 740 270 733 301.5 c 128,-1,53
 726 333 726 333 720.5 355.5 c 128,-1,54
 715 378 715 378 707 411 c 128,-1,55
 699 444 699 444 692 468 c 128,-1,56
 685 492 685 492 675.5 520 c 128,-1,57
 666 548 666 548 657 566.5 c 128,-1,58
 648 585 648 585 637.5 601 c 128,-1,59
 627 617 627 617 615 623.5 c 128,-1,60
 603 630 603 630 591 627 c 0,61,62
 542 616 542 616 473.5 536.5 c 128,-1,63
 405 457 405 457 350.5 368 c 128,-1,64
 296 279 296 279 246.5 203 c 128,-1,65
 197 127 197 127 183 122 c 0,10,11
EndSplineSet
EndChar
StartChar: f
Encoding: 102 102 11
Width: 766
Flags: W
LayerCount: 2
Fore
SplineSet
427 306 m 0,0,1
 401 309 401 309 370.5 263 c 128,-1,2
 340 217 340 217 345 200 c 0,3,4
 350 182 350 182 395.5 182 c 128,-1,5
 441 182 441 182 446 194 c 0,6,7
 453 213 453 213 449.5 238 c 128,-1,8
 446 263 446 263 438.5 284 c 128,-1,9
 431 305 431 305 427 306 c 0,0,1
93 122 m 0,10,11
 52 107 52 107 62 152 c 0,12,13
 79 229 79 229 214 420 c 2,14,-1
 259 482 l 2,15,16
 330 575 330 575 415 647.5 c 128,-1,17
 500 720 500 720 547 718 c 0,18,19
 577 717 577 717 611.5 642.5 c 128,-1,20
 646 568 646 568 668 474 c 128,-1,21
 690 380 690 380 699.5 290.5 c 128,-1,22
 709 201 709 201 689 170 c 0,23,24
 678 151 678 151 599.5 151.5 c 128,-1,25
 521 152 521 152 507 146 c 0,26,27
 494 137 494 137 493.5 112.5 c 128,-1,28
 493 88 493 88 498 64.5 c 128,-1,29
 503 41 503 41 498.5 21 c 128,-1,30
 494 1 494 1 473 0 c 0,31,32
 448 -2 448 -2 447 25.5 c 128,-1,33
 446 53 446 53 447 90 c 128,-1,34
 448 127 448 127 428 140 c 0,35,36
 408 152 408 152 375.5 148.5 c 128,-1,37
 343 145 343 145 312 147 c 128,-1,38
 281 149 281 149 281 166 c 0,39,40
 280 193 280 193 313 249.5 c 128,-1,41
 346 306 346 306 383 350.5 c 128,-1,42
 420 395 420 395 431 394 c 0,43,44
 457 391 457 391 468.5 345.5 c 128,-1,45
 480 300 480 300 488 255 c 128,-1,46
 496 210 496 210 511 208 c 0,47,48
 539 207 539 207 573 207.5 c 128,-1,49
 607 208 607 208 632.5 220.5 c 128,-1,50
 658 233 658 233 653 256 c 0,51,52
 650 270 650 270 643 301.5 c 128,-1,53
 636 333 636 333 630.5 355.5 c 128,-1,54
 625 378 625 378 617 411 c 128,-1,55
 609 444 609 444 602 468 c 128,-1,56
 595 492 595 492 585.5 520 c 128,-1,57
 576 548 576 548 567 566.5 c 128,-1,58
 558 585 558 585 547.5 601 c 128,-1,59
 537 617 537 617 525 623.5 c 128,-1,60
 513 630 513 630 501 627 c 0,61,62
 452 616 452 616 383.5 536.5 c 128,-1,63
 315 457 315 457 260.5 368 c 128,-1,64
 206 279 206 279 156.5 203 c 128,-1,65
 107 127 107 127 93 122 c 0,10,11
EndSplineSet
Validated: 33
EndChar
StartChar: f
Encoding: 102 102 12
Width: 1000
Flags: HW
LayerCount: 2
Back
Fore
SplineSet
517 306 m 4
 478.659179688 310.79296875 430.206054688 217.8046875 435 200 c 4
 442 174 530 180 536 194 c 4
 550.580078125 228.020507812 525 305 517 306 c 4
183 122 m 4
 76 84 255 359 349 482 c 28
 437 598 571.044441124 721.140740899 637 718 c 4
 721 714 829 254 779 170 c 4
 759.137695312 136.630859375 621.186523438 162.125 597 146 c 4
 558 120 624 4 563 0 c 28
 505 -4 566.170731122 107.44879936 518 140 c 4
 484.596910786 162.572019018 371.781067077 126.780008992 371 166 c 4
 369.83422391 224.537517594 498.750292026 396.224970797 521 394 c 4
 581 388 563 212 601 208 c 4
 651.709960938 202.662109375 754.443607476 206.674105706 743 256 c 4
 714 381 665.778320312 644.2109375 591 627 c 4
 448.356587412 594.169269802 229.548072226 138.531091071 183 122 c 4
EndSplineSet
Validated: 524321
EndChar
StartChar: g
Encoding: 103 103 12
Width: 1000
Flags: W
LayerCount: 2
Fore
SplineSet
672 -144 m 0,0,1
 666 -105 666 -105 688 -98 c 0,2,3
 698 -95 698 -95 704 -105.5 c 128,-1,4
 710 -116 710 -116 712 -130 c 0,5,6
 715 -149 715 -149 696 -156 c 0,7,8
 688 -158 688 -158 680.5 -154.5 c 128,-1,9
 673 -151 673 -151 672 -144 c 0,0,1
501 -84 m 0,10,11
 487 -82 487 -82 477 -94.5 c 128,-1,12
 467 -107 467 -107 467 -124 c 0,13,14
 466 -141 466 -141 475 -154.5 c 128,-1,15
 484 -168 484 -168 499 -170 c 0,16,17
 517 -172 517 -172 532.5 -162.5 c 128,-1,18
 548 -153 548 -153 549 -136 c 0,19,20
 550 -116 550 -116 536 -101.5 c 128,-1,21
 522 -87 522 -87 501 -84 c 0,10,11
501 -32 m 0,22,23
 542 -34 542 -34 570 -62 c 128,-1,24
 598 -90 598 -90 599 -130 c 0,25,26
 600 -165 600 -165 570.5 -186.5 c 128,-1,27
 541 -208 541 -208 503 -206 c 0,28,29
 468 -204 468 -204 444 -180.5 c 128,-1,30
 420 -157 420 -157 419 -122 c 0,31,32
 418 -86 418 -86 442.5 -58.5 c 128,-1,33
 467 -31 467 -31 501 -32 c 0,22,23
177 248 m 0,34,35
 189 257 189 257 229.5 278.5 c 128,-1,36
 270 300 270 300 317 334.5 c 128,-1,37
 364 369 364 369 415 423 c 0,38,39
 478 490 478 490 507 545.5 c 128,-1,40
 536 601 536 601 555 680 c 0,41,42
 561 705 561 705 579 678 c 0,43,44
 603 642 603 642 602 600 c 0,45,46
 601 587 601 587 597 578 c 0,47,48
 563 511 563 511 513 452 c 128,-1,49
 463 393 463 393 402.5 334.5 c 128,-1,50
 342 276 342 276 315 244 c 0,51,52
 304 231 304 231 303 220.5 c 128,-1,53
 302 210 302 210 309.5 202 c 128,-1,54
 317 194 317 194 325.5 188 c 128,-1,55
 334 182 334 182 348 174.5 c 128,-1,56
 362 167 362 167 369 162 c 0,57,58
 389 148 389 148 416.5 140 c 128,-1,59
 444 132 444 132 464 130.5 c 128,-1,60
 484 129 484 129 517 128 c 0,61,62
 555 127 555 127 601.5 146.5 c 128,-1,63
 648 166 648 166 634 192 c 0,64,65
 626 207 626 207 567 277 c 0,66,67
 514 340 514 340 535 344 c 0,68,69
 538 345 538 345 543 344 c 0,70,71
 622 336 622 336 670 276.5 c 128,-1,72
 718 217 718 217 723 132 c 0,73,74
 724 109 724 109 703.5 93 c 128,-1,75
 683 77 683 77 645 69 c 128,-1,76
 607 61 607 61 573.5 57 c 128,-1,77
 540 53 540 53 497 51 c 0,78,79
 440 48 440 48 387.5 68 c 128,-1,80
 335 88 335 88 269 128 c 0,81,82
 262 132 262 132 248 141 c 0,83,84
 219 157 219 157 205 167 c 128,-1,85
 191 177 191 177 174 192.5 c 128,-1,86
 157 208 157 208 158 221.5 c 128,-1,87
 159 235 159 235 177 248 c 0,34,35
EndSplineSet
EndChar
StartChar: g
Encoding: 103 103 12
Width: 700
Flags: W
LayerCount: 2
Fore
SplineSet
582 -144 m 0,0,1
 576 -105 576 -105 598 -98 c 0,2,3
 608 -95 608 -95 614 -105.5 c 128,-1,4
 620 -116 620 -116 622 -130 c 0,5,6
 625 -149 625 -149 606 -156 c 0,7,8
 598 -158 598 -158 590.5 -154.5 c 128,-1,9
 583 -151 583 -151 582 -144 c 0,0,1
411 -84 m 0,10,11
 397 -82 397 -82 387 -94.5 c 128,-1,12
 377 -107 377 -107 377 -124 c 0,13,14
 376 -141 376 -141 385 -154.5 c 128,-1,15
 394 -168 394 -168 409 -170 c 0,16,17
 427 -172 427 -172 442.5 -162.5 c 128,-1,18
 458 -153 458 -153 459 -136 c 0,19,20
 460 -116 460 -116 446 -101.5 c 128,-1,21
 432 -87 432 -87 411 -84 c 0,10,11
411 -32 m 0,22,23
 452 -34 452 -34 480 -62 c 128,-1,24
 508 -90 508 -90 509 -130 c 0,25,26
 510 -165 510 -165 480.5 -186.5 c 128,-1,27
 451 -208 451 -208 413 -206 c 0,28,29
 378 -204 378 -204 354 -180.5 c 128,-1,30
 330 -157 330 -157 329 -122 c 0,31,32
 328 -86 328 -86 352.5 -58.5 c 128,-1,33
 377 -31 377 -31 411 -32 c 0,22,23
87 248 m 0,34,35
 99 257 99 257 139.5 278.5 c 128,-1,36
 180 300 180 300 227 334.5 c 128,-1,37
 274 369 274 369 325 423 c 0,38,39
 388 490 388 490 417 545.5 c 128,-1,40
 446 601 446 601 465 680 c 0,41,42
 471 705 471 705 489 678 c 0,43,44
 513 642 513 642 512 600 c 0,45,46
 511 587 511 587 507 578 c 0,47,48
 473 511 473 511 423 452 c 128,-1,49
 373 393 373 393 312.5 334.5 c 128,-1,50
 252 276 252 276 225 244 c 0,51,52
 214 231 214 231 213 220.5 c 128,-1,53
 212 210 212 210 219.5 202 c 128,-1,54
 227 194 227 194 235.5 188 c 128,-1,55
 244 182 244 182 258 174.5 c 128,-1,56
 272 167 272 167 279 162 c 0,57,58
 299 148 299 148 326.5 140 c 128,-1,59
 354 132 354 132 374 130.5 c 128,-1,60
 394 129 394 129 427 128 c 0,61,62
 465 127 465 127 511.5 146.5 c 128,-1,63
 558 166 558 166 544 192 c 0,64,65
 536 207 536 207 477 277 c 0,66,67
 424 340 424 340 445 344 c 0,68,69
 448 345 448 345 453 344 c 0,70,71
 532 336 532 336 580 276.5 c 128,-1,72
 628 217 628 217 633 132 c 0,73,74
 634 109 634 109 613.5 93 c 128,-1,75
 593 77 593 77 555 69 c 128,-1,76
 517 61 517 61 483.5 57 c 128,-1,77
 450 53 450 53 407 51 c 0,78,79
 350 48 350 48 297.5 68 c 128,-1,80
 245 88 245 88 179 128 c 0,81,82
 172 132 172 132 158 141 c 0,83,84
 129 157 129 157 115 167 c 128,-1,85
 101 177 101 177 84 192.5 c 128,-1,86
 67 208 67 208 68 221.5 c 128,-1,87
 69 235 69 235 87 248 c 0,34,35
EndSplineSet
Validated: 33
EndChar
StartChar: g
Encoding: 103 103 11
Width: 1000
Flags: HW
LayerCount: 2
Fore
SplineSet
672 -144 m 28
 669 -125 670 -104 688 -98 c 24
 703 -93 710 -115 712 -130 c 24
 714 -142 707 -152 696 -156 c 24
 686 -159 673 -154 672 -144 c 28
501 -84 m 24
 481 -81 467 -103 467 -124 c 24
 466 -146 478 -167 499 -170 c 24
 522 -173 548 -159 549 -136 c 24
 550 -108 528 -88 501 -84 c 24
501 -32 m 24
 555 -34 598 -76 599 -130 c 24
 600 -178 551 -208 503 -206 c 24
 457 -204 420 -169 419 -122 c 24
 418 -75 454 -30 501 -32 c 24
177 248 m 0
 223 282 301 302 415 423 c 0
 503.441836193 516.872475257 531 582 555 680 c 0
 565.934202211 724.647992363 618 620 597 578 c 24
 520 426 397 342 315 244 c 0
 277.729492188 199.45703125 338.324225211 184.013680878 369 162 c 0
 411.372070312 131.592773438 465.53792868 129.286551783 517 128 c 0
 557 127 655.041104752 153.0349912 634 192 c 0
 607 242 487 350 543 344 c 0
 651.087396332 332.419207536 716.133853419 241.858345296 723 132 c 0
 727 68 590.029296875 55.4296875 497 51 c 0
 413 47 341 85 269 128 c 24
 210 164 121.227036372 206.776505144 177 248 c 0
EndSplineSet
Validated: 524321
EndChar
StartChar: h
Encoding: 104 104 13
Width: 1000
Flags: W
LayerCount: 2
Fore
SplineSet
594 -142 m 0,0,1
 596 -109 596 -109 620.5 -87.5 c 128,-1,2
 645 -66 645 -66 678 -68 c 0,3,4
 706 -69 706 -69 721 -94 c 128,-1,5
 736 -119 736 -119 734 -150 c 0,6,7
 733 -172 733 -172 713 -184 c 128,-1,8
 693 -196 693 -196 668 -194 c 0,9,10
 637 -192 637 -192 614.5 -179 c 128,-1,11
 592 -166 592 -166 594 -142 c 0,0,1
374 -142 m 0,12,13
 376 -109 376 -109 400.5 -87.5 c 128,-1,14
 425 -66 425 -66 458 -68 c 0,15,16
 486 -69 486 -69 501 -94 c 128,-1,17
 516 -119 516 -119 514 -150 c 0,18,19
 513 -172 513 -172 493 -184 c 128,-1,20
 473 -196 473 -196 448 -194 c 0,21,22
 417 -192 417 -192 394.5 -179 c 128,-1,23
 372 -166 372 -166 374 -142 c 0,12,13
773 46 m 1024,24,-1
554 546 m 1,25,-1
 361 58 l 1,26,-1
 773 46 l 1,27,-1
 554 546 l 1,25,-1
293 0 m 0,28,29
 276 0 276 0 330 167 c 128,-1,30
 384 334 384 334 453 502 c 128,-1,31
 522 670 522 670 541 672 c 0,32,33
 568 675 568 675 688 454 c 0,34,35
 817 215 817 215 863 81 c 0,36,37
 879 35 879 35 875 24 c 0,38,39
 868 8 868 8 813.5 -0.5 c 128,-1,40
 759 -9 759 -9 678.5 -9.5 c 128,-1,41
 598 -10 598 -10 522.5 -8 c 128,-1,42
 447 -6 447 -6 376 -3 c 128,-1,43
 305 0 305 0 293 0 c 0,28,29
EndSplineSet
EndChar
StartChar: h
Encoding: 104 104 13
Width: 772
Flags: W
LayerCount: 2
Fore
SplineSet
404 -142 m 0,0,1
 406 -109 406 -109 430.5 -87.5 c 128,-1,2
 455 -66 455 -66 488 -68 c 0,3,4
 516 -69 516 -69 531 -94 c 128,-1,5
 546 -119 546 -119 544 -150 c 0,6,7
 543 -172 543 -172 523 -184 c 128,-1,8
 503 -196 503 -196 478 -194 c 0,9,10
 447 -192 447 -192 424.5 -179 c 128,-1,11
 402 -166 402 -166 404 -142 c 0,0,1
184 -142 m 0,12,13
 186 -109 186 -109 210.5 -87.5 c 128,-1,14
 235 -66 235 -66 268 -68 c 0,15,16
 296 -69 296 -69 311 -94 c 128,-1,17
 326 -119 326 -119 324 -150 c 0,18,19
 323 -172 323 -172 303 -184 c 128,-1,20
 283 -196 283 -196 258 -194 c 0,21,22
 227 -192 227 -192 204.5 -179 c 128,-1,23
 182 -166 182 -166 184 -142 c 0,12,13
583 46 m 1024,24,-1
364 546 m 1,25,-1
 171 58 l 1,26,-1
 583 46 l 1,27,-1
 364 546 l 1,25,-1
103 0 m 0,28,29
 86 0 86 0 140 167 c 128,-1,30
 194 334 194 334 263 502 c 128,-1,31
 332 670 332 670 351 672 c 0,32,33
 378 675 378 675 498 454 c 0,34,35
 627 215 627 215 673 81 c 0,36,37
 689 35 689 35 685 24 c 0,38,39
 678 8 678 8 623.5 -0.5 c 128,-1,40
 569 -9 569 -9 488.5 -9.5 c 128,-1,41
 408 -10 408 -10 332.5 -8 c 128,-1,42
 257 -6 257 -6 186 -3 c 128,-1,43
 115 0 115 0 103 0 c 0,28,29
EndSplineSet
Validated: 33
EndChar
StartChar: i
Encoding: 105 105 14
Width: 1000
Flags: W
LayerCount: 2
Fore
SplineSet
567 363 m 0,0,1
 540 364 540 364 521 339 c 128,-1,2
 502 314 502 314 503 284 c 0,3,4
 504 253 504 253 522 230 c 128,-1,5
 540 207 540 207 569 206 c 0,6,7
 601 204 601 204 630.5 227.5 c 128,-1,8
 660 251 660 251 659 280 c 0,9,10
 658 312 658 312 629.5 336.5 c 128,-1,11
 601 361 601 361 567 363 c 0,0,1
573 448 m 0,12,13
 651 451 651 451 707.5 403.5 c 128,-1,14
 764 356 764 356 764 282 c 0,15,16
 764 212 764 212 708 171.5 c 128,-1,17
 652 131 652 131 573 128 c 0,18,19
 507 126 507 126 457 166 c 128,-1,20
 407 206 407 206 407 268 c 0,21,22
 407 340 407 340 454.5 392.5 c 128,-1,23
 502 445 502 445 573 448 c 0,12,13
543 592 m 0,24,25
 485 591 485 591 433 550.5 c 128,-1,26
 381 510 381 510 348.5 453.5 c 128,-1,27
 316 397 316 397 297.5 341.5 c 128,-1,28
 279 286 279 286 281 252 c 0,29,30
 287 121 287 121 370.5 31 c 128,-1,31
 454 -59 454 -59 555 -52 c 0,32,33
 612 -48 612 -48 665 -21.5 c 128,-1,34
 718 5 718 5 756 43.5 c 128,-1,35
 794 82 794 82 822.5 126 c 128,-1,36
 851 170 851 170 865.5 209.5 c 128,-1,37
 880 249 880 249 881 278 c 0,38,39
 882 310 882 310 874 347.5 c 128,-1,40
 866 385 866 385 842.5 430 c 128,-1,41
 819 475 819 475 783 510.5 c 128,-1,42
 747 546 747 546 684.5 569.5 c 128,-1,43
 622 593 622 593 543 592 c 0,24,25
185 266 m 0,44,45
 183 444 183 444 296 576 c 128,-1,46
 409 708 409 708 581 714 c 0,47,48
 689 718 689 718 778 659 c 128,-1,49
 867 600 867 600 916 503 c 128,-1,50
 965 406 965 406 967 294 c 0,51,52
 969 181 969 181 923 82.5 c 128,-1,53
 877 -16 877 -16 789.5 -79 c 128,-1,54
 702 -142 702 -142 593 -146 c 0,55,56
 483 -150 483 -150 389 -94 c 128,-1,57
 295 -38 295 -38 240.5 58 c 128,-1,58
 186 154 186 154 185 266 c 0,44,45
EndSplineSet
EndChar
StartChar: i
Encoding: 105 105 14
Width: 910
Flags: W
LayerCount: 2
Fore
SplineSet
445 363 m 0,0,1
 418 364 418 364 399 339 c 128,-1,2
 380 314 380 314 381 284 c 0,3,4
 382 253 382 253 400 230 c 128,-1,5
 418 207 418 207 447 206 c 0,6,7
 479 204 479 204 508.5 227.5 c 128,-1,8
 538 251 538 251 537 280 c 0,9,10
 536 312 536 312 507.5 336.5 c 128,-1,11
 479 361 479 361 445 363 c 0,0,1
451 448 m 0,12,13
 529 451 529 451 585.5 403.5 c 128,-1,14
 642 356 642 356 642 282 c 0,15,16
 642 212 642 212 586 171.5 c 128,-1,17
 530 131 530 131 451 128 c 0,18,19
 385 126 385 126 335 166 c 128,-1,20
 285 206 285 206 285 268 c 0,21,22
 285 340 285 340 332.5 392.5 c 128,-1,23
 380 445 380 445 451 448 c 0,12,13
421 592 m 0,24,25
 363 591 363 591 311 550.5 c 128,-1,26
 259 510 259 510 226.5 453.5 c 128,-1,27
 194 397 194 397 175.5 341.5 c 128,-1,28
 157 286 157 286 159 252 c 0,29,30
 165 121 165 121 248.5 31 c 128,-1,31
 332 -59 332 -59 433 -52 c 0,32,33
 490 -48 490 -48 543 -21.5 c 128,-1,34
 596 5 596 5 634 43.5 c 128,-1,35
 672 82 672 82 700.5 126 c 128,-1,36
 729 170 729 170 743.5 209.5 c 128,-1,37
 758 249 758 249 759 278 c 0,38,39
 760 310 760 310 752 347.5 c 128,-1,40
 744 385 744 385 720.5 430 c 128,-1,41
 697 475 697 475 661 510.5 c 128,-1,42
 625 546 625 546 562.5 569.5 c 128,-1,43
 500 593 500 593 421 592 c 0,24,25
63 266 m 0,44,45
 61 444 61 444 174 576 c 128,-1,46
 287 708 287 708 459 714 c 0,47,48
 567 718 567 718 656 659 c 128,-1,49
 745 600 745 600 794 503 c 128,-1,50
 843 406 843 406 845 294 c 0,51,52
 847 181 847 181 801 82.5 c 128,-1,53
 755 -16 755 -16 667.5 -79 c 128,-1,54
 580 -142 580 -142 471 -146 c 0,55,56
 361 -150 361 -150 267 -94 c 128,-1,57
 173 -38 173 -38 118.5 58 c 128,-1,58
 64 154 64 154 63 266 c 0,44,45
EndSplineSet
Validated: 33
EndChar
StartChar: i
Encoding: 105 105 3
Width: 1000
Flags: H
LayerCount: 2
Back
Fore
SplineSet
567 363 m 0
 530 365 502 322 503 284 c 24
 504 244 528.997596511 207.951336756 569 206 c 0
 610 204 660 240 659 280 c 24
 658 324 610.981445312 360.623046875 567 363 c 0
573 448 m 24
 674 452 764 383 764 282 c 24
 764 184 671 132 573 128 c 24
 488 125 407 183 407 268 c 24
 407 363 478 444 573 448 c 24
543 592 m 0
 379 590 277.137695312 337.936523438 281 252 c 0
 289 74 423.322242496 -61.2174430253 555 -52 c 0
 755 -38 879.041992188 184.999023438 881 278 c 0
 883 373 820.986322898 595.390077109 543 592 c 0
185 266 m 24
 182 499 348 706 581 714 c 24
 803 722 964 517 967 294 c 24
 970 69 818 -138 593 -146 c 24
 367 -154 188 40 185 266 c 24
EndSplineSet
Validated: 524321
EndChar
StartChar: j
Encoding: 106 106 30
Width: 1000
Flags: W
LayerCount: 2
Back
Fore
SplineSet
124 113 m 0,0,1
 147 185 147 185 213 212 c 0,2,3
 279.858389913 240.099903007 279.858389913 240.099903007 354 113 c 0,4,5
 368 90 368 90 313 44 c 0,6,-1
 399 -41 l 24,7,8
 371 -121 371 -121 251 -112 c 0,9,10
 55 -96 55 -96 99 -72 c 24,11,12
 158.63935898 -40.1237908901 158.63935898 -40.1237908901 231 -62 c 0,13,14
 318 -88 318 -88 309 -32 c 24,15,16
 305 -8 305 -8 245 10 c 0,17,-1
 136 14 l 0,18,19
 256 46 l 0,20,21
 299 67 299 67 301 100 c 0,22,23
 308 196 308 196 231 168 c 0,24,25
 130 132 130 132 124 113 c 0,0,1
226 266 m 1,26,27
 312 443 312 443 369 608 c 0,28,29
 383 649 383 649 435.42578125 557.247070312 c 1,30,31
 331.498368382 385.161120843 331.498368382 385.161120843 300.5 342.5 c 0,32,33
 251 276 251 276 226 266 c 1,26,27
EndSplineSet
EndChar
StartChar: k
Encoding: 107 107 15
Width: 1000
Flags: W
LayerCount: 2
Fore
SplineSet
501 -84 m 0,0,1
 487 -82 487 -82 477 -94.5 c 128,-1,2
 467 -107 467 -107 467 -124 c 0,3,4
 466 -141 466 -141 475 -154.5 c 128,-1,5
 484 -168 484 -168 499 -170 c 0,6,7
 517 -172 517 -172 532.5 -162.5 c 128,-1,8
 548 -153 548 -153 549 -136 c 0,9,10
 550 -116 550 -116 536 -101.5 c 128,-1,11
 522 -87 522 -87 501 -84 c 0,0,1
501 -32 m 0,12,13
 542 -34 542 -34 570 -62 c 128,-1,14
 598 -90 598 -90 599 -130 c 0,15,16
 600 -165 600 -165 570.5 -186.5 c 128,-1,17
 541 -208 541 -208 503 -206 c 0,18,19
 468 -204 468 -204 444 -180.5 c 128,-1,20
 420 -157 420 -157 419 -122 c 0,21,22
 418 -86 418 -86 442.5 -58.5 c 128,-1,23
 467 -31 467 -31 501 -32 c 0,12,13
177 248 m 0,24,25
 189 257 189 257 229.5 278.5 c 128,-1,26
 270 300 270 300 317 334.5 c 128,-1,27
 364 369 364 369 415 423 c 0,28,29
 478 490 478 490 507 545.5 c 128,-1,30
 536 601 536 601 555 680 c 0,31,32
 561 705 561 705 579 678 c 0,33,34
 603 642 603 642 602 600 c 0,35,36
 601 587 601 587 597 578 c 0,37,38
 563 511 563 511 513 452 c 128,-1,39
 463 393 463 393 402.5 334.5 c 128,-1,40
 342 276 342 276 315 244 c 0,41,42
 304 231 304 231 303 220.5 c 128,-1,43
 302 210 302 210 309.5 202 c 128,-1,44
 317 194 317 194 325.5 188 c 128,-1,45
 334 182 334 182 348 174.5 c 128,-1,46
 362 167 362 167 369 162 c 0,47,48
 389 148 389 148 416.5 140 c 128,-1,49
 444 132 444 132 464 130.5 c 128,-1,50
 484 129 484 129 517 128 c 0,51,52
 555 127 555 127 601.5 146.5 c 128,-1,53
 648 166 648 166 634 192 c 0,54,55
 626 207 626 207 567 277 c 0,56,57
 514 340 514 340 535 344 c 0,58,59
 538 345 538 345 543 344 c 0,60,61
 622 336 622 336 670 276.5 c 128,-1,62
 718 217 718 217 723 132 c 0,63,64
 724 109 724 109 703.5 93 c 128,-1,65
 683 77 683 77 645 69 c 128,-1,66
 607 61 607 61 573.5 57 c 128,-1,67
 540 53 540 53 497 51 c 0,68,69
 440 48 440 48 387.5 68 c 128,-1,70
 335 88 335 88 269 128 c 0,71,72
 262 132 262 132 248 141 c 0,73,74
 219 157 219 157 205 167 c 128,-1,75
 191 177 191 177 174 192.5 c 128,-1,76
 157 208 157 208 158 221.5 c 128,-1,77
 159 235 159 235 177 248 c 0,24,25
EndSplineSet
EndChar
StartChar: k
Encoding: 107 107 15
Width: 700
Flags: W
LayerCount: 2
Fore
SplineSet
411 -84 m 0,0,1
 397 -82 397 -82 387 -94.5 c 128,-1,2
 377 -107 377 -107 377 -124 c 0,3,4
 376 -141 376 -141 385 -154.5 c 128,-1,5
 394 -168 394 -168 409 -170 c 0,6,7
 427 -172 427 -172 442.5 -162.5 c 128,-1,8
 458 -153 458 -153 459 -136 c 0,9,10
 460 -116 460 -116 446 -101.5 c 128,-1,11
 432 -87 432 -87 411 -84 c 0,0,1
411 -32 m 0,12,13
 452 -34 452 -34 480 -62 c 128,-1,14
 508 -90 508 -90 509 -130 c 0,15,16
 510 -165 510 -165 480.5 -186.5 c 128,-1,17
 451 -208 451 -208 413 -206 c 0,18,19
 378 -204 378 -204 354 -180.5 c 128,-1,20
 330 -157 330 -157 329 -122 c 0,21,22
 328 -86 328 -86 352.5 -58.5 c 128,-1,23
 377 -31 377 -31 411 -32 c 0,12,13
87 248 m 0,24,25
 99 257 99 257 139.5 278.5 c 128,-1,26
 180 300 180 300 227 334.5 c 128,-1,27
 274 369 274 369 325 423 c 0,28,29
 388 490 388 490 417 545.5 c 128,-1,30
 446 601 446 601 465 680 c 0,31,32
 471 705 471 705 489 678 c 0,33,34
 513 642 513 642 512 600 c 0,35,36
 511 587 511 587 507 578 c 0,37,38
 473 511 473 511 423 452 c 128,-1,39
 373 393 373 393 312.5 334.5 c 128,-1,40
 252 276 252 276 225 244 c 0,41,42
 214 231 214 231 213 220.5 c 128,-1,43
 212 210 212 210 219.5 202 c 128,-1,44
 227 194 227 194 235.5 188 c 128,-1,45
 244 182 244 182 258 174.5 c 128,-1,46
 272 167 272 167 279 162 c 0,47,48
 299 148 299 148 326.5 140 c 128,-1,49
 354 132 354 132 374 130.5 c 128,-1,50
 394 129 394 129 427 128 c 0,51,52
 465 127 465 127 511.5 146.5 c 128,-1,53
 558 166 558 166 544 192 c 0,54,55
 536 207 536 207 477 277 c 0,56,57
 424 340 424 340 445 344 c 0,58,59
 448 345 448 345 453 344 c 0,60,61
 532 336 532 336 580 276.5 c 128,-1,62
 628 217 628 217 633 132 c 0,63,64
 634 109 634 109 613.5 93 c 128,-1,65
 593 77 593 77 555 69 c 128,-1,66
 517 61 517 61 483.5 57 c 128,-1,67
 450 53 450 53 407 51 c 0,68,69
 350 48 350 48 297.5 68 c 128,-1,70
 245 88 245 88 179 128 c 0,71,72
 172 132 172 132 158 141 c 0,73,74
 129 157 129 157 115 167 c 128,-1,75
 101 177 101 177 84 192.5 c 128,-1,76
 67 208 67 208 68 221.5 c 128,-1,77
 69 235 69 235 87 248 c 0,24,25
EndSplineSet
Validated: 33
EndChar
StartChar: k
Encoding: 107 107 9
Width: 1000
Flags: HW
LayerCount: 2
Back
Fore
SplineSet
501 -84 m 28
 481 -81 467 -103 467 -124 c 24
 466 -146 478 -167 499 -170 c 24
 522 -173 548 -159 549 -136 c 24
 550 -108 528 -88 501 -84 c 28
501 -32 m 24
 555 -34 598 -76 599 -130 c 24
 600 -178 551 -208 503 -206 c 24
 457 -204 420 -169 419 -122 c 24
 418 -75 454 -30 501 -32 c 24
177 248 m 0
 223 282 301 302 415 423 c 0
 503.441836193 516.872475257 531 582 555 680 c 0
 565.934202211 724.647992363 618 620 597 578 c 24
 520 426 397 342 315 244 c 0
 277.729492188 199.45703125 338.324225211 184.013680878 369 162 c 0
 411.372070312 131.592773438 465.53792868 129.286551783 517 128 c 0
 557 127 655.041104752 153.0349912 634 192 c 0
 607 242 487 350 543 344 c 0
 651.087396332 332.419207536 716.133853419 241.858345296 723 132 c 0
 727 68 590.029296875 55.4296875 497 51 c 0
 413 47 341 85 269 128 c 24
 210 164 121.227036372 206.776505144 177 248 c 0
EndSplineSet
Validated: 524321
EndChar
StartChar: l
Encoding: 108 108 29
Width: 610
Flags: W
LayerCount: 2
Fore
SplineSet
283 610 m 0,1,2
 240 612 240 612 240 662.5 c 152,-1,3
 240 713 240 713 283 711 c 24,4,5
 329 709 329 709 329 658.5 c 128,-1,6
 329 608 329 608 283 610 c 0,1,2
421 564 m 0,7,8
 449 506 449 506 504 587 c 24,9,-1
 439 654 l 0,10,11
 406 596 406 596 421 564 c 0,7,8
45 -136 m 1,12,13
 103 154 103 154 365 392 c 24,14,15
 403 468 403 468 365 496 c 24,16,-1
 203 510 l 0,17,18
 221 553 221 553 371 548 c 0,19,-1
 403 704 l 0,20,21
 544 689 544 689 558 564 c 0,22,-1
 448 495 l 0,23,-1
 438 413 l 1,24,-1
 571 397 l 0,25,26
 562 364 562 364 412 353 c 1,27,28
 204 201 204 201 45 -136 c 1,12,13
EndSplineSet
Validated: 33
EndChar
StartChar: m
Encoding: 109 109 16
Width: 1000
Flags: W
LayerCount: 2
Fore
SplineSet
424 118 m 0,0,1
 426 151 426 151 450.5 172.5 c 128,-1,2
 475 194 475 194 508 192 c 0,3,4
 536 191 536 191 551 166 c 128,-1,5
 566 141 566 141 564 110 c 0,6,7
 563 88 563 88 543 76 c 128,-1,8
 523 64 523 64 498 66 c 0,9,10
 467 68 467 68 444.5 81 c 128,-1,11
 422 94 422 94 424 118 c 0,0,1
-187 94 m 1024,12,-1
1057 -222 m 1024,13,-1
115 24 m 0,14,15
 120 60 120 60 153 33 c 0,16,17
 163 25 163 25 187 1 c 0,18,19
 251 -62 251 -62 284 -73 c 0,20,21
 302 -78 302 -78 317 -74 c 0,22,23
 441 -42 441 -42 524 13.5 c 128,-1,24
 607 69 607 69 715 178 c 0,25,26
 736 202 736 202 722.5 221 c 128,-1,27
 709 240 709 240 673 246 c 0,28,29
 619 255 619 255 541 241 c 128,-1,30
 463 227 463 227 435 226 c 0,31,32
 425 226 425 226 409.5 224.5 c 128,-1,33
 394 223 394 223 382 222 c 128,-1,34
 370 221 370 221 353 220.5 c 128,-1,35
 336 220 336 220 325 220 c 128,-1,36
 314 220 314 220 300 221.5 c 128,-1,37
 286 223 286 223 279 226 c 128,-1,38
 272 229 272 229 264.5 234 c 128,-1,39
 257 239 257 239 258 247 c 128,-1,40
 259 255 259 255 261 266 c 0,41,42
 278 309 278 309 313 341 c 128,-1,43
 348 373 348 373 383 390 c 128,-1,44
 418 407 418 407 462 435 c 128,-1,45
 506 463 506 463 535 496 c 0,46,47
 569 534 569 534 589 583 c 128,-1,48
 609 632 609 632 631 676 c 128,-1,49
 653 720 653 720 693 754 c 0,50,51
 716 774 716 774 728 731 c 0,52,53
 742 683 742 683 728 642 c 0,54,55
 726 639 726 639 725 636 c 0,56,57
 707 598 707 598 681.5 563.5 c 128,-1,58
 656 529 656 529 642 513.5 c 128,-1,59
 628 498 628 498 583.5 457 c 128,-1,60
 539 416 539 416 527 404 c 0,61,62
 504 382 504 382 462 361 c 128,-1,63
 420 340 420 340 392 323 c 128,-1,64
 364 306 364 306 361 284 c 1,65,66
 367 268 367 268 420.5 270.5 c 128,-1,67
 474 273 474 273 543.5 289 c 128,-1,68
 613 305 613 305 631 320 c 0,69,70
 640 328 640 328 644 384 c 0,71,72
 646 413 646 413 653 414 c 0,73,74
 655 414 655 414 657 412 c 0,75,76
 718 369 718 369 748.5 332.5 c 128,-1,77
 779 296 779 296 789 238 c 0,78,79
 811 110 811 110 719 38 c 0,80,81
 600 -55 600 -55 514 -96 c 128,-1,82
 428 -137 428 -137 307 -140 c 0,83,84
 229 -142 229 -142 166.5 -93.5 c 128,-1,85
 104 -45 104 -45 115 24 c 0,14,15
EndSplineSet
EndChar
StartChar: m
Encoding: 109 109 16
Width: 832
Flags: W
LayerCount: 2
Fore
SplineSet
390 118 m 0,0,1
 392 151 392 151 416.5 172.5 c 128,-1,2
 441 194 441 194 474 192 c 0,3,4
 502 191 502 191 517 166 c 128,-1,5
 532 141 532 141 530 110 c 0,6,7
 529 88 529 88 509 76 c 128,-1,8
 489 64 489 64 464 66 c 0,9,10
 433 68 433 68 410.5 81 c 128,-1,11
 388 94 388 94 390 118 c 0,0,1
-221 94 m 1024,12,-1
1023 -222 m 1024,13,-1
81 24 m 0,14,15
 86 60 86 60 119 33 c 0,16,17
 129 25 129 25 153 1 c 0,18,19
 217 -62 217 -62 250 -73 c 0,20,21
 268 -78 268 -78 283 -74 c 0,22,23
 407 -42 407 -42 490 13.5 c 128,-1,24
 573 69 573 69 681 178 c 0,25,26
 702 202 702 202 688.5 221 c 128,-1,27
 675 240 675 240 639 246 c 0,28,29
 585 255 585 255 507 241 c 128,-1,30
 429 227 429 227 401 226 c 0,31,32
 391 226 391 226 375.5 224.5 c 128,-1,33
 360 223 360 223 348 222 c 128,-1,34
 336 221 336 221 319 220.5 c 128,-1,35
 302 220 302 220 291 220 c 128,-1,36
 280 220 280 220 266 221.5 c 128,-1,37
 252 223 252 223 245 226 c 128,-1,38
 238 229 238 229 230.5 234 c 128,-1,39
 223 239 223 239 224 247 c 128,-1,40
 225 255 225 255 227 266 c 0,41,42
 244 309 244 309 279 341 c 128,-1,43
 314 373 314 373 349 390 c 128,-1,44
 384 407 384 407 428 435 c 128,-1,45
 472 463 472 463 501 496 c 0,46,47
 535 534 535 534 555 583 c 128,-1,48
 575 632 575 632 597 676 c 128,-1,49
 619 720 619 720 659 754 c 0,50,51
 682 774 682 774 694 731 c 0,52,53
 708 683 708 683 694 642 c 0,54,55
 692 639 692 639 691 636 c 0,56,57
 673 598 673 598 647.5 563.5 c 128,-1,58
 622 529 622 529 608 513.5 c 128,-1,59
 594 498 594 498 549.5 457 c 128,-1,60
 505 416 505 416 493 404 c 0,61,62
 470 382 470 382 428 361 c 128,-1,63
 386 340 386 340 358 323 c 128,-1,64
 330 306 330 306 327 284 c 1,65,66
 333 268 333 268 386.5 270.5 c 128,-1,67
 440 273 440 273 509.5 289 c 128,-1,68
 579 305 579 305 597 320 c 0,69,70
 606 328 606 328 610 384 c 0,71,72
 612 413 612 413 619 414 c 0,73,74
 621 414 621 414 623 412 c 0,75,76
 684 369 684 369 714.5 332.5 c 128,-1,77
 745 296 745 296 755 238 c 0,78,79
 777 110 777 110 685 38 c 0,80,81
 566 -55 566 -55 480 -96 c 128,-1,82
 394 -137 394 -137 273 -140 c 0,83,84
 195 -142 195 -142 132.5 -93.5 c 128,-1,85
 70 -45 70 -45 81 24 c 0,14,15
EndSplineSet
Validated: 33
EndChar
StartChar: m
Encoding: 109 109 23
Width: 1000
Flags: HWO
LayerCount: 2
Fore
SplineSet
424 118 m 28
 427 162 464 195 508 192 c 28
 547 190 567 149 564 110 c 28
 562 79 529 64 498 66 c 28
 463 68 421 83 424 118 c 28
-187 94 m 1052
1057 -222 m 1052
115 24 m 28
 128 111 232 -96 317 -74 c 28
 495 -28 586 48 715 178 c 28
 747 210 717 238 673 246 c 28
 579 262 531 231 435 226 c 28
 365 223 235 201 261 266 c 28
 311 391 446 395 535 496 c 28
 618 589 598 674 693 754 c 28
 729 785 745 679 725 636 c 28
 674 529 612 486 527 404 c 28
 470 348 367 334 361 284 c 4
 356.617261215 247.477176788 593.603685106 290.476593505 631 320 c 28
 651 337 636 427 657 412 c 28
 726 363 775 322 789 238 c 28
 803 156 784 89 719 38 c 28
 581 -70 482 -136 307 -140 c 28
 209 -142 100 -73 115 24 c 28
EndSplineSet
Validated: 524321
EndChar
StartChar: n
Encoding: 110 110 17
Width: 1000
Flags: W
LayerCount: 2
Fore
SplineSet
508 192 m 1024,0,1
-187 94 m 1024,2,-1
1057 -222 m 1024,3,-1
115 24 m 0,4,5
 120 60 120 60 153 33 c 0,6,7
 163 25 163 25 187 1 c 0,8,9
 251 -62 251 -62 284 -73 c 0,10,11
 302 -78 302 -78 317 -74 c 0,12,13
 441 -42 441 -42 524 13.5 c 128,-1,14
 607 69 607 69 715 178 c 0,15,16
 736 202 736 202 722.5 221 c 128,-1,17
 709 240 709 240 673 246 c 0,18,19
 619 255 619 255 541 241 c 128,-1,20
 463 227 463 227 435 226 c 0,21,22
 425 226 425 226 409.5 224.5 c 128,-1,23
 394 223 394 223 382 222 c 128,-1,24
 370 221 370 221 353 220.5 c 128,-1,25
 336 220 336 220 325 220 c 128,-1,26
 314 220 314 220 300 221.5 c 128,-1,27
 286 223 286 223 279 226 c 128,-1,28
 272 229 272 229 264.5 234 c 128,-1,29
 257 239 257 239 258 247 c 128,-1,30
 259 255 259 255 261 266 c 0,31,32
 278 309 278 309 313 341 c 128,-1,33
 348 373 348 373 383 390 c 128,-1,34
 418 407 418 407 462 435 c 128,-1,35
 506 463 506 463 535 496 c 0,36,37
 569 534 569 534 589 583 c 128,-1,38
 609 632 609 632 631 676 c 128,-1,39
 653 720 653 720 693 754 c 0,40,41
 716 774 716 774 728 731 c 0,42,43
 742 683 742 683 728 642 c 0,44,45
 726 639 726 639 725 636 c 0,46,47
 707 598 707 598 681.5 563.5 c 128,-1,48
 656 529 656 529 642 513.5 c 128,-1,49
 628 498 628 498 583.5 457 c 128,-1,50
 539 416 539 416 527 404 c 0,51,52
 504 382 504 382 462 361 c 128,-1,53
 420 340 420 340 392 323 c 128,-1,54
 364 306 364 306 361 284 c 1,55,56
 367 268 367 268 420.5 270.5 c 128,-1,57
 474 273 474 273 543.5 289 c 128,-1,58
 613 305 613 305 631 320 c 0,59,60
 640 328 640 328 644 384 c 0,61,62
 646 413 646 413 653 414 c 0,63,64
 655 414 655 414 657 412 c 0,65,66
 718 369 718 369 748.5 332.5 c 128,-1,67
 779 296 779 296 789 238 c 0,68,69
 811 110 811 110 719 38 c 0,70,71
 600 -55 600 -55 514 -96 c 128,-1,72
 428 -137 428 -137 307 -140 c 0,73,74
 229 -142 229 -142 166.5 -93.5 c 128,-1,75
 104 -45 104 -45 115 24 c 0,4,5
EndSplineSet
EndChar
StartChar: n
Encoding: 110 110 17
Width: 824
Flags: W
LayerCount: 2
Fore
SplineSet
468 192 m 1024,0,1
-227 94 m 1024,2,-1
1017 -222 m 1024,3,-1
75 24 m 0,4,5
 80 60 80 60 113 33 c 0,6,7
 123 25 123 25 147 1 c 0,8,9
 211 -62 211 -62 244 -73 c 0,10,11
 262 -78 262 -78 277 -74 c 0,12,13
 401 -42 401 -42 484 13.5 c 128,-1,14
 567 69 567 69 675 178 c 0,15,16
 696 202 696 202 682.5 221 c 128,-1,17
 669 240 669 240 633 246 c 0,18,19
 579 255 579 255 501 241 c 128,-1,20
 423 227 423 227 395 226 c 0,21,22
 385 226 385 226 369.5 224.5 c 128,-1,23
 354 223 354 223 342 222 c 128,-1,24
 330 221 330 221 313 220.5 c 128,-1,25
 296 220 296 220 285 220 c 128,-1,26
 274 220 274 220 260 221.5 c 128,-1,27
 246 223 246 223 239 226 c 128,-1,28
 232 229 232 229 224.5 234 c 128,-1,29
 217 239 217 239 218 247 c 128,-1,30
 219 255 219 255 221 266 c 0,31,32
 238 309 238 309 273 341 c 128,-1,33
 308 373 308 373 343 390 c 128,-1,34
 378 407 378 407 422 435 c 128,-1,35
 466 463 466 463 495 496 c 0,36,37
 529 534 529 534 549 583 c 128,-1,38
 569 632 569 632 591 676 c 128,-1,39
 613 720 613 720 653 754 c 0,40,41
 676 774 676 774 688 731 c 0,42,43
 702 683 702 683 688 642 c 0,44,45
 686 639 686 639 685 636 c 0,46,47
 667 598 667 598 641.5 563.5 c 128,-1,48
 616 529 616 529 602 513.5 c 128,-1,49
 588 498 588 498 543.5 457 c 128,-1,50
 499 416 499 416 487 404 c 0,51,52
 464 382 464 382 422 361 c 128,-1,53
 380 340 380 340 352 323 c 128,-1,54
 324 306 324 306 321 284 c 1,55,56
 327 268 327 268 380.5 270.5 c 128,-1,57
 434 273 434 273 503.5 289 c 128,-1,58
 573 305 573 305 591 320 c 0,59,60
 600 328 600 328 604 384 c 0,61,62
 606 413 606 413 613 414 c 0,63,64
 615 414 615 414 617 412 c 0,65,66
 678 369 678 369 708.5 332.5 c 128,-1,67
 739 296 739 296 749 238 c 0,68,69
 771 110 771 110 679 38 c 0,70,71
 560 -55 560 -55 474 -96 c 128,-1,72
 388 -137 388 -137 267 -140 c 0,73,74
 189 -142 189 -142 126.5 -93.5 c 128,-1,75
 64 -45 64 -45 75 24 c 0,4,5
EndSplineSet
Validated: 33
EndChar
StartChar: n
Encoding: 110 110 22
Width: 1000
Flags: HW
LayerCount: 2
Back
SplineSet
-187 95 m 1052
1057 -221 m 1052
115 25 m 28
 128 112 232 -95 317 -73 c 28
 495 -27 586 49 715 179 c 28
 747 211 717 279 673 287 c 28
 579 303 531 232 435 227 c 28
 365 224 222.166992188 208.750976562 261 267 c 4
 311 342 446 376 535 477 c 28
 618 570 629 645 693 755 c 4
 716.891601562 796.063476562 745 680 725 637 c 28
 674 530 612 487 527 405 c 28
 470 349 369 321 361 285 c 4
 347.506835938 224.280273438 458 286 519 301 c 28
 565 312 593 321 631 351 c 28
 651 368 636 428 657 413 c 28
 726 364 775 323 789 239 c 28
 803 157 784 90 719 39 c 28
 581 -69 482 -135 307 -139 c 28
 209 -141 100 -72 115 25 c 28
EndSplineSet
Fore
SplineSet
508 192 m 1048
-187 94 m 1048
1057 -222 m 1048
115 24 m 24
 128 111 232 -96 317 -74 c 24
 495 -28 586 48 715 178 c 24
 747 210 717 238 673 246 c 24
 579 262 531 231 435 226 c 24
 365 223 235 201 261 266 c 24
 311 391 446 395 535 496 c 24
 618 589 598 674 693 754 c 24
 729 785 745 679 725 636 c 24
 674 529 612 486 527 404 c 24
 470 348 367 334 361 284 c 0
 356.617261215 247.477176788 593.603685106 290.476593505 631 320 c 24
 651 337 636 427 657 412 c 24
 726 363 775 322 789 238 c 24
 803 156 784 89 719 38 c 24
 581 -70 482 -136 307 -140 c 24
 209 -142 100 -73 115 24 c 24
EndSplineSet
Validated: 524321
EndChar
StartChar: o
Encoding: 111 111 18
Width: 1000
Flags: W
LayerCount: 2
Fore
SplineSet
773 46 m 1,0,-1
 583 488 l 1,1,-1
 609 48 l 1,2,-1
 773 46 l 1,0,-1
513 476 m 1,3,-1
 361 58 l 1,4,-1
 515 46 l 1,5,-1
 513 476 l 1,3,-1
293 0 m 0,6,7
 276 0 276 0 330 167 c 128,-1,8
 384 334 384 334 453 502 c 128,-1,9
 522 670 522 670 541 672 c 0,10,11
 568 675 568 675 688 454 c 0,12,13
 817 215 817 215 863 81 c 0,14,15
 879 35 879 35 875 24 c 0,16,17
 868 8 868 8 813.5 -0.5 c 128,-1,18
 759 -9 759 -9 678.5 -9.5 c 128,-1,19
 598 -10 598 -10 522.5 -8 c 128,-1,20
 447 -6 447 -6 376 -3 c 128,-1,21
 305 0 305 0 293 0 c 0,6,7
EndSplineSet
EndChar
StartChar: o
Encoding: 111 111 18
Width: 734
Flags: W
LayerCount: 2
Fore
SplineSet
563 46 m 1,0,-1
 373 488 l 1,1,-1
 399 48 l 1,2,-1
 563 46 l 1,0,-1
303 476 m 1,3,-1
 151 58 l 1,4,-1
 305 46 l 1,5,-1
 303 476 l 1,3,-1
83 0 m 0,6,7
 66 0 66 0 120 167 c 128,-1,8
 174 334 174 334 243 502 c 128,-1,9
 312 670 312 670 331 672 c 0,10,11
 358 675 358 675 478 454 c 0,12,13
 607 215 607 215 653 81 c 0,14,15
 669 35 669 35 665 24 c 0,16,17
 658 8 658 8 603.5 -0.5 c 128,-1,18
 549 -9 549 -9 468.5 -9.5 c 128,-1,19
 388 -10 388 -10 312.5 -8 c 128,-1,20
 237 -6 237 -6 166 -3 c 128,-1,21
 95 0 95 0 83 0 c 0,6,7
EndSplineSet
Validated: 33
EndChar
StartChar: o
Encoding: 111 111 5
Width: 1000
Flags: H
LayerCount: 2
Back
Fore
SplineSet
773 46 m 1
 583 488 l 1
 609 48 l 1
 773 46 l 1
513 476 m 25
 361 58 l 1
 515 46 l 1
 513 476 l 25
293 0 m 4
 257 0 501 668 541 672 c 4
 586.380678053 676.538067805 895 74 875 24 c 4
 851.849501647 -33.8762458834 361.363438165 0 293 0 c 4
EndSplineSet
Validated: 524321
EndChar
StartChar: r
Encoding: 114 114 19
Width: 1000
Flags: W
LayerCount: 2
Fore
SplineSet
504 -142 m 0,0,1
 504 -116 504 -116 518.5 -101 c 128,-1,2
 533 -86 533 -86 558 -88 c 0,3,4
 584 -90 584 -90 600 -105.5 c 128,-1,5
 616 -121 616 -121 614 -147 c 0,6,7
 612 -170 612 -170 594.5 -182.5 c 128,-1,8
 577 -195 577 -195 555 -192 c 0,9,10
 538 -190 538 -190 521 -177.5 c 128,-1,11
 504 -165 504 -165 504 -142 c 0,0,1
370 -184 m 0,12,13
 357 -198 357 -198 360 -192 c 0,14,15
 371 -168 371 -168 443 -87 c 0,16,17
 501 -20 501 -20 530 -2 c 0,18,19
 578 28 578 28 658 21 c 0,20,21
 692 18 692 18 693 11 c 0,22,23
 694 6 694 6 670 2 c 0,24,25
 520 -22 520 -22 370 -184 c 0,12,13
517 306 m 0,26,27
 491 309 491 309 460.5 263 c 128,-1,28
 430 217 430 217 435 200 c 0,29,30
 440 182 440 182 485.5 182 c 128,-1,31
 531 182 531 182 536 194 c 0,32,33
 543 213 543 213 539.5 238 c 128,-1,34
 536 263 536 263 528.5 284 c 128,-1,35
 521 305 521 305 517 306 c 0,26,27
183 122 m 0,36,37
 142 107 142 107 152 152 c 0,38,39
 169 229 169 229 304 420 c 2,40,-1
 349 482 l 2,41,42
 420 575 420 575 505 647.5 c 128,-1,43
 590 720 590 720 637 718 c 0,44,45
 667 717 667 717 701.5 642.5 c 128,-1,46
 736 568 736 568 758 474 c 128,-1,47
 780 380 780 380 789.5 290.5 c 128,-1,48
 799 201 799 201 779 170 c 0,49,50
 768 151 768 151 689.5 151.5 c 128,-1,51
 611 152 611 152 597 146 c 0,52,53
 584 137 584 137 583.5 112.5 c 128,-1,54
 583 88 583 88 588 64.5 c 128,-1,55
 593 41 593 41 588.5 21 c 128,-1,56
 584 1 584 1 563 0 c 0,57,58
 538 -2 538 -2 537 25.5 c 128,-1,59
 536 53 536 53 537 90 c 128,-1,60
 538 127 538 127 518 140 c 0,61,62
 498 152 498 152 465.5 148.5 c 128,-1,63
 433 145 433 145 402 147 c 128,-1,64
 371 149 371 149 371 166 c 0,65,66
 370 193 370 193 403 249.5 c 128,-1,67
 436 306 436 306 473 350.5 c 128,-1,68
 510 395 510 395 521 394 c 0,69,70
 547 391 547 391 558.5 345.5 c 128,-1,71
 570 300 570 300 578 255 c 128,-1,72
 586 210 586 210 601 208 c 0,73,74
 629 207 629 207 663 207.5 c 128,-1,75
 697 208 697 208 722.5 220.5 c 128,-1,76
 748 233 748 233 743 256 c 0,77,78
 740 270 740 270 733 301.5 c 128,-1,79
 726 333 726 333 720.5 355.5 c 128,-1,80
 715 378 715 378 707 411 c 128,-1,81
 699 444 699 444 692 468 c 128,-1,82
 685 492 685 492 675.5 520 c 128,-1,83
 666 548 666 548 657 566.5 c 128,-1,84
 648 585 648 585 637.5 601 c 128,-1,85
 627 617 627 617 615 623.5 c 128,-1,86
 603 630 603 630 591 627 c 0,87,88
 542 616 542 616 473.5 536.5 c 128,-1,89
 405 457 405 457 350.5 368 c 128,-1,90
 296 279 296 279 246.5 203 c 128,-1,91
 197 127 197 127 183 122 c 0,36,37
EndSplineSet
EndChar
StartChar: r
Encoding: 114 114 19
Width: 798
Flags: W
LayerCount: 2
Fore
SplineSet
428 -142 m 0,0,1
 428 -116 428 -116 442.5 -101 c 128,-1,2
 457 -86 457 -86 482 -88 c 0,3,4
 508 -90 508 -90 524 -105.5 c 128,-1,5
 540 -121 540 -121 538 -147 c 0,6,7
 536 -170 536 -170 518.5 -182.5 c 128,-1,8
 501 -195 501 -195 479 -192 c 0,9,10
 462 -190 462 -190 445 -177.5 c 128,-1,11
 428 -165 428 -165 428 -142 c 0,0,1
294 -184 m 0,12,13
 281 -198 281 -198 284 -192 c 0,14,15
 295 -168 295 -168 367 -87 c 0,16,17
 425 -20 425 -20 454 -2 c 0,18,19
 502 28 502 28 582 21 c 0,20,21
 616 18 616 18 617 11 c 0,22,23
 618 6 618 6 594 2 c 0,24,25
 444 -22 444 -22 294 -184 c 0,12,13
441 306 m 0,26,27
 415 309 415 309 384.5 263 c 128,-1,28
 354 217 354 217 359 200 c 0,29,30
 364 182 364 182 409.5 182 c 128,-1,31
 455 182 455 182 460 194 c 0,32,33
 467 213 467 213 463.5 238 c 128,-1,34
 460 263 460 263 452.5 284 c 128,-1,35
 445 305 445 305 441 306 c 0,26,27
107 122 m 0,36,37
 66 107 66 107 76 152 c 0,38,39
 93 229 93 229 228 420 c 2,40,-1
 273 482 l 2,41,42
 344 575 344 575 429 647.5 c 128,-1,43
 514 720 514 720 561 718 c 0,44,45
 591 717 591 717 625.5 642.5 c 128,-1,46
 660 568 660 568 682 474 c 128,-1,47
 704 380 704 380 713.5 290.5 c 128,-1,48
 723 201 723 201 703 170 c 0,49,50
 692 151 692 151 613.5 151.5 c 128,-1,51
 535 152 535 152 521 146 c 0,52,53
 508 137 508 137 507.5 112.5 c 128,-1,54
 507 88 507 88 512 64.5 c 128,-1,55
 517 41 517 41 512.5 21 c 128,-1,56
 508 1 508 1 487 0 c 0,57,58
 462 -2 462 -2 461 25.5 c 128,-1,59
 460 53 460 53 461 90 c 128,-1,60
 462 127 462 127 442 140 c 0,61,62
 422 152 422 152 389.5 148.5 c 128,-1,63
 357 145 357 145 326 147 c 128,-1,64
 295 149 295 149 295 166 c 0,65,66
 294 193 294 193 327 249.5 c 128,-1,67
 360 306 360 306 397 350.5 c 128,-1,68
 434 395 434 395 445 394 c 0,69,70
 471 391 471 391 482.5 345.5 c 128,-1,71
 494 300 494 300 502 255 c 128,-1,72
 510 210 510 210 525 208 c 0,73,74
 553 207 553 207 587 207.5 c 128,-1,75
 621 208 621 208 646.5 220.5 c 128,-1,76
 672 233 672 233 667 256 c 0,77,78
 664 270 664 270 657 301.5 c 128,-1,79
 650 333 650 333 644.5 355.5 c 128,-1,80
 639 378 639 378 631 411 c 128,-1,81
 623 444 623 444 616 468 c 128,-1,82
 609 492 609 492 599.5 520 c 128,-1,83
 590 548 590 548 581 566.5 c 128,-1,84
 572 585 572 585 561.5 601 c 128,-1,85
 551 617 551 617 539 623.5 c 128,-1,86
 527 630 527 630 515 627 c 0,87,88
 466 616 466 616 397.5 536.5 c 128,-1,89
 329 457 329 457 274.5 368 c 128,-1,90
 220 279 220 279 170.5 203 c 128,-1,91
 121 127 121 127 107 122 c 0,36,37
EndSplineSet
Validated: 37
EndChar
StartChar: r
Encoding: 114 114 15
Width: 1000
Flags: HW
LayerCount: 2
Fore
SplineSet
504 -142 m 0
 504.170840031 -108.864357352 523.983398438 -85.2490234375 558 -88 c 0
 589.95810299 -90.5845025155 617 -110 614 -147 c 0
 611.489499555 -177.962838816 583.791948701 -196.10559316 555 -192 c 0
 540.018796874 -189.863752616 503.81962988 -176.984071317 504 -142 c 0
370 -184 m 0
 317.632345115 -240.478100979 469 -40 530 -2 c 24
 600 41 751.294921875 15.234375 670 2 c 0
 584 -12 476.398088526 -69.2505043238 370 -184 c 0
517 306 m 0
 478.659179688 310.79296875 430.206054688 217.8046875 435 200 c 0
 442 174 530 180 536 194 c 0
 550.580078125 228.020507812 525 305 517 306 c 0
183 122 m 0
 76 84 255 359 349 482 c 24
 437 598 571.044441124 721.140740899 637 718 c 0
 721 714 829 254 779 170 c 0
 759.137695312 136.630859375 621.186523438 162.125 597 146 c 0
 558 120 624 4 563 0 c 24
 505 -4 566.170731122 107.44879936 518 140 c 0
 484.596910786 162.572019018 371.781067077 126.780008992 371 166 c 0
 369.83422391 224.537517594 498.750292026 396.224970797 521 394 c 0
 581 388 563 212 601 208 c 0
 651.709960938 202.662109375 754.443607476 206.674105706 743 256 c 0
 714 381 665.778320312 644.2109375 591 627 c 0
 448.356587412 594.169269802 229.548072226 138.531091071 183 122 c 0
EndSplineSet
Validated: 524325
EndChar
StartChar: s
Encoding: 115 115 20
Width: 1000
Flags: W
LayerCount: 2
Fore
SplineSet
143 130 m 0,0,1
 143 133 143 133 164 144 c 128,-1,2
 185 155 185 155 220 176.5 c 128,-1,3
 255 198 255 198 299 228.5 c 128,-1,4
 343 259 343 259 391.5 306.5 c 128,-1,5
 440 354 440 354 485 410.5 c 128,-1,6
 530 467 530 467 570.5 547.5 c 128,-1,7
 611 628 611 628 635 719 c 0,8,9
 643 750 643 750 673 725 c 0,10,11
 705 697 705 697 714 654 c 0,12,13
 719 627 719 627 707 610 c 0,14,15
 705 608 705 608 645.5 522 c 128,-1,16
 586 436 586 436 547.5 384.5 c 128,-1,17
 509 333 509 333 444.5 260 c 128,-1,18
 380 187 380 187 327 148 c 0,19,20
 285 117 285 117 357 93 c 0,21,22
 426 70 426 70 512 74 c 0,23,24
 570 77 570 77 604 99.5 c 128,-1,25
 638 122 638 122 647 152.5 c 128,-1,26
 656 183 656 183 659 213 c 128,-1,27
 662 243 662 243 666.5 264 c 128,-1,28
 671 285 671 285 687 286 c 0,29,30
 716 287 716 287 723.5 268.5 c 128,-1,31
 731 250 731 250 735 215.5 c 128,-1,32
 739 181 739 181 757 158 c 0,33,34
 771 140 771 140 801 124 c 128,-1,35
 831 108 831 108 850 111 c 0,36,37
 939 125 939 125 857 265 c 0,38,39
 847 281 847 281 829 309 c 0,40,41
 799 360 799 360 807 360 c 0,42,43
 886 343 886 343 927.5 278 c 128,-1,44
 969 213 969 213 971 124 c 0,45,46
 972 83 972 83 928.5 63 c 128,-1,47
 885 43 885 43 845 62 c 0,48,49
 795 89 795 89 742.5 86.5 c 128,-1,50
 690 84 690 84 658 70 c 128,-1,51
 626 56 626 56 580 39.5 c 128,-1,52
 534 23 534 23 497 24 c 0,53,54
 438 25 438 25 290.5 66.5 c 128,-1,55
 143 108 143 108 143 130 c 0,0,1
EndSplineSet
EndChar
StartChar: s
Encoding: 115 115 20
Width: 950
Flags: W
LayerCount: 2
Fore
SplineSet
57 130 m 0,0,1
 57 133 57 133 78 144 c 128,-1,2
 99 155 99 155 134 176.5 c 128,-1,3
 169 198 169 198 213 228.5 c 128,-1,4
 257 259 257 259 305.5 306.5 c 128,-1,5
 354 354 354 354 399 410.5 c 128,-1,6
 444 467 444 467 484.5 547.5 c 128,-1,7
 525 628 525 628 549 719 c 0,8,9
 557 750 557 750 587 725 c 0,10,11
 619 697 619 697 628 654 c 0,12,13
 633 627 633 627 621 610 c 0,14,15
 619 608 619 608 559.5 522 c 128,-1,16
 500 436 500 436 461.5 384.5 c 128,-1,17
 423 333 423 333 358.5 260 c 128,-1,18
 294 187 294 187 241 148 c 0,19,20
 199 117 199 117 271 93 c 0,21,22
 340 70 340 70 426 74 c 0,23,24
 484 77 484 77 518 99.5 c 128,-1,25
 552 122 552 122 561 152.5 c 128,-1,26
 570 183 570 183 573 213 c 128,-1,27
 576 243 576 243 580.5 264 c 128,-1,28
 585 285 585 285 601 286 c 0,29,30
 630 287 630 287 637.5 268.5 c 128,-1,31
 645 250 645 250 649 215.5 c 128,-1,32
 653 181 653 181 671 158 c 0,33,34
 685 140 685 140 715 124 c 128,-1,35
 745 108 745 108 764 111 c 0,36,37
 853 125 853 125 771 265 c 0,38,39
 761 281 761 281 743 309 c 0,40,41
 713 360 713 360 721 360 c 0,42,43
 800 343 800 343 841.5 278 c 128,-1,44
 883 213 883 213 885 124 c 0,45,46
 886 83 886 83 842.5 63 c 128,-1,47
 799 43 799 43 759 62 c 0,48,49
 709 89 709 89 656.5 86.5 c 128,-1,50
 604 84 604 84 572 70 c 128,-1,51
 540 56 540 56 494 39.5 c 128,-1,52
 448 23 448 23 411 24 c 0,53,54
 352 25 352 25 204.5 66.5 c 128,-1,55
 57 108 57 108 57 130 c 0,0,1
EndSplineSet
Validated: 33
EndChar
StartChar: s
Encoding: 115 115 19
Width: 1000
Flags: H
LayerCount: 2
Back
Fore
SplineSet
143 130 m 0
 143 146 516 275 635 719 c 0
 650.926757812 778.424804688 742.845010496 659.72049843 707 610 c 0
 645 524 478.477365651 261.006923581 327 148 c 0
 264 101 420.099601413 70.042566568 512 74 c 0
 721 83 627 284 687 286 c 0
 753.235351562 288.208007812 712.11328125 216.087890625 757 158 c 0
 774 136 823.014591877 106.783565099 850 111 c 0
 990.701171875 132.984375 769 368 807 360 c 0
 917.033561314 336.835039723 969.002472041 235.861565705 971 124 c 0
 972 68 896.116210938 37.76953125 845 62 c 0
 691 135 615.992399732 22.324050708 497 24 c 0
 426 25 143 98 143 130 c 0
EndSplineSet
Validated: 524321
EndChar
StartChar: t
Encoding: 116 116 30
Width: 666
Flags: W
LayerCount: 2
Fore
SplineSet
314 717 m 0,0,1
 271 719 271 719 271 769.5 c 152,-1,2
 271 820 271 820 314 818 c 24,3,4
 360 816 360 816 360 765.5 c 128,-1,5
 360 715 360 715 314 717 c 0,0,1
317 581 m 0,6,7
 274 583 274 583 274 633.5 c 152,-1,8
 274 684 274 684 317 682 c 24,9,10
 363 680 363 680 363 629.5 c 128,-1,11
 363 579 363 579 317 581 c 0,6,7
455 564 m 0,12,13
 483 506 483 506 538 587 c 24,14,-1
 473 654 l 0,15,16
 440 596 440 596 455 564 c 0,12,13
79 -136 m 1,17,18
 137 154 137 154 399 392 c 24,19,20
 437 468 437 468 399 496 c 24,21,-1
 237 510 l 0,22,23
 255 553 255 553 405 548 c 0,24,-1
 437 704 l 0,25,26
 578 689 578 689 592 564 c 0,27,-1
 482 495 l 0,28,-1
 472 413 l 1,29,-1
 605 397 l 0,30,31
 596 364 596 364 446 353 c 1,32,33
 238 201 238 201 79 -136 c 1,17,18
EndSplineSet
EndChar
StartChar: u
Encoding: 117 117 21
Width: 1000
Flags: W
LayerCount: 2
Fore
SplineSet
573 378 m 0,0,1
 677 378 677 378 683 275 c 0,2,3
 686 231 686 231 659 205.5 c 128,-1,4
 632 180 632 180 589 178 c 128,-1,5
 546 176 546 176 518 198.5 c 128,-1,6
 490 221 490 221 489 270 c 0,7,8
 487 326 487 326 507 352 c 128,-1,9
 527 378 527 378 573 378 c 0,0,1
543 592 m 0,10,11
 485 591 485 591 433 550.5 c 128,-1,12
 381 510 381 510 348.5 453.5 c 128,-1,13
 316 397 316 397 297.5 341.5 c 128,-1,14
 279 286 279 286 281 252 c 0,15,16
 287 121 287 121 370.5 31 c 128,-1,17
 454 -59 454 -59 555 -52 c 0,18,19
 612 -48 612 -48 665 -21.5 c 128,-1,20
 718 5 718 5 756 43.5 c 128,-1,21
 794 82 794 82 822.5 126 c 128,-1,22
 851 170 851 170 865.5 209.5 c 128,-1,23
 880 249 880 249 881 278 c 0,24,25
 882 310 882 310 874 347.5 c 128,-1,26
 866 385 866 385 842.5 430 c 128,-1,27
 819 475 819 475 783 510.5 c 128,-1,28
 747 546 747 546 684.5 569.5 c 128,-1,29
 622 593 622 593 543 592 c 0,10,11
185 266 m 0,30,31
 183 444 183 444 296 576 c 128,-1,32
 409 708 409 708 581 714 c 0,33,34
 689 718 689 718 778 659 c 128,-1,35
 867 600 867 600 916 503 c 128,-1,36
 965 406 965 406 967 294 c 0,37,38
 969 181 969 181 923 82.5 c 128,-1,39
 877 -16 877 -16 789.5 -79 c 128,-1,40
 702 -142 702 -142 593 -146 c 0,41,42
 483 -150 483 -150 389 -94 c 128,-1,43
 295 -38 295 -38 240.5 58 c 128,-1,44
 186 154 186 154 185 266 c 0,30,31
EndSplineSet
EndChar
StartChar: u
Encoding: 117 117 21
Width: 906
Flags: W
LayerCount: 2
Fore
SplineSet
457 378 m 0,0,1
 561 378 561 378 567 275 c 0,2,3
 570 231 570 231 543 205.5 c 128,-1,4
 516 180 516 180 473 178 c 128,-1,5
 430 176 430 176 402 198.5 c 128,-1,6
 374 221 374 221 373 270 c 0,7,8
 371 326 371 326 391 352 c 128,-1,9
 411 378 411 378 457 378 c 0,0,1
427 592 m 0,10,11
 369 591 369 591 317 550.5 c 128,-1,12
 265 510 265 510 232.5 453.5 c 128,-1,13
 200 397 200 397 181.5 341.5 c 128,-1,14
 163 286 163 286 165 252 c 0,15,16
 171 121 171 121 254.5 31 c 128,-1,17
 338 -59 338 -59 439 -52 c 0,18,19
 496 -48 496 -48 549 -21.5 c 128,-1,20
 602 5 602 5 640 43.5 c 128,-1,21
 678 82 678 82 706.5 126 c 128,-1,22
 735 170 735 170 749.5 209.5 c 128,-1,23
 764 249 764 249 765 278 c 0,24,25
 766 310 766 310 758 347.5 c 128,-1,26
 750 385 750 385 726.5 430 c 128,-1,27
 703 475 703 475 667 510.5 c 128,-1,28
 631 546 631 546 568.5 569.5 c 128,-1,29
 506 593 506 593 427 592 c 0,10,11
69 266 m 0,30,31
 67 444 67 444 180 576 c 128,-1,32
 293 708 293 708 465 714 c 0,33,34
 573 718 573 718 662 659 c 128,-1,35
 751 600 751 600 800 503 c 128,-1,36
 849 406 849 406 851 294 c 0,37,38
 853 181 853 181 807 82.5 c 128,-1,39
 761 -16 761 -16 673.5 -79 c 128,-1,40
 586 -142 586 -142 477 -146 c 0,41,42
 367 -150 367 -150 273 -94 c 128,-1,43
 179 -38 179 -38 124.5 58 c 128,-1,44
 70 154 70 154 69 266 c 0,30,31
EndSplineSet
Validated: 33
EndChar
StartChar: u
Encoding: 117 117 4
Width: 1000
Flags: HW
LayerCount: 2
Fore
SplineSet
573 378 m 0
 645 378 679 342 683 275 c 0
 686.577717773 215.073227295 645 180 589 178 c 0
 537.033203125 176.143554688 491 200 489 270 c 0
 486.885742188 343.997070312 511 378 573 378 c 0
543 592 m 0
 379 590 277.137695312 337.936523438 281 252 c 0
 289 74 423.322242496 -61.2174430253 555 -52 c 0
 755 -38 879.041992188 184.999023438 881 278 c 0
 883 373 820.986322898 595.390077109 543 592 c 0
185 266 m 24
 182 499 348 706 581 714 c 24
 803 722 964 517 967 294 c 24
 970 69 818 -138 593 -146 c 24
 367 -154 188 40 185 266 c 24
EndSplineSet
Validated: 524321
EndChar
StartChar: v
Encoding: 118 118 22
Width: 1000
Flags: W
LayerCount: 2
Fore
SplineSet
494 -122 m 0,0,1
 496 -89 496 -89 520.5 -67.5 c 128,-1,2
 545 -46 545 -46 578 -48 c 0,3,4
 606 -49 606 -49 621 -74 c 128,-1,5
 636 -99 636 -99 634 -130 c 0,6,7
 633 -152 633 -152 613 -164 c 128,-1,8
 593 -176 593 -176 568 -174 c 0,9,10
 537 -172 537 -172 514.5 -159 c 128,-1,11
 492 -146 492 -146 494 -122 c 0,0,1
517 306 m 0,12,13
 491 309 491 309 460.5 263 c 128,-1,14
 430 217 430 217 435 200 c 0,15,16
 440 182 440 182 485.5 182 c 128,-1,17
 531 182 531 182 536 194 c 0,18,19
 543 213 543 213 539.5 238 c 128,-1,20
 536 263 536 263 528.5 284 c 128,-1,21
 521 305 521 305 517 306 c 0,12,13
183 122 m 0,22,23
 142 107 142 107 152 152 c 0,24,25
 169 229 169 229 304 420 c 2,26,-1
 349 482 l 2,27,28
 420 575 420 575 505 647.5 c 128,-1,29
 590 720 590 720 637 718 c 0,30,31
 667 717 667 717 701.5 642.5 c 128,-1,32
 736 568 736 568 758 474 c 128,-1,33
 780 380 780 380 789.5 290.5 c 128,-1,34
 799 201 799 201 779 170 c 0,35,36
 768 151 768 151 689.5 151.5 c 128,-1,37
 611 152 611 152 597 146 c 0,38,39
 584 137 584 137 583.5 112.5 c 128,-1,40
 583 88 583 88 588 64.5 c 128,-1,41
 593 41 593 41 588.5 21 c 128,-1,42
 584 1 584 1 563 0 c 0,43,44
 538 -2 538 -2 537 25.5 c 128,-1,45
 536 53 536 53 537 90 c 128,-1,46
 538 127 538 127 518 140 c 0,47,48
 498 152 498 152 465.5 148.5 c 128,-1,49
 433 145 433 145 402 147 c 128,-1,50
 371 149 371 149 371 166 c 0,51,52
 370 193 370 193 403 249.5 c 128,-1,53
 436 306 436 306 473 350.5 c 128,-1,54
 510 395 510 395 521 394 c 0,55,56
 547 391 547 391 558.5 345.5 c 128,-1,57
 570 300 570 300 578 255 c 128,-1,58
 586 210 586 210 601 208 c 0,59,60
 629 207 629 207 663 207.5 c 128,-1,61
 697 208 697 208 722.5 220.5 c 128,-1,62
 748 233 748 233 743 256 c 0,63,64
 740 270 740 270 733 301.5 c 128,-1,65
 726 333 726 333 720.5 355.5 c 128,-1,66
 715 378 715 378 707 411 c 128,-1,67
 699 444 699 444 692 468 c 128,-1,68
 685 492 685 492 675.5 520 c 128,-1,69
 666 548 666 548 657 566.5 c 128,-1,70
 648 585 648 585 637.5 601 c 128,-1,71
 627 617 627 617 615 623.5 c 128,-1,72
 603 630 603 630 591 627 c 0,73,74
 542 616 542 616 473.5 536.5 c 128,-1,75
 405 457 405 457 350.5 368 c 128,-1,76
 296 279 296 279 246.5 203 c 128,-1,77
 197 127 197 127 183 122 c 0,22,23
EndSplineSet
EndChar
StartChar: v
Encoding: 118 118 22
Width: 758
Flags: W
LayerCount: 2
Fore
SplineSet
406 -122 m 0,0,1
 408 -89 408 -89 432.5 -67.5 c 128,-1,2
 457 -46 457 -46 490 -48 c 0,3,4
 518 -49 518 -49 533 -74 c 128,-1,5
 548 -99 548 -99 546 -130 c 0,6,7
 545 -152 545 -152 525 -164 c 128,-1,8
 505 -176 505 -176 480 -174 c 0,9,10
 449 -172 449 -172 426.5 -159 c 128,-1,11
 404 -146 404 -146 406 -122 c 0,0,1
429 306 m 0,12,13
 403 309 403 309 372.5 263 c 128,-1,14
 342 217 342 217 347 200 c 0,15,16
 352 182 352 182 397.5 182 c 128,-1,17
 443 182 443 182 448 194 c 0,18,19
 455 213 455 213 451.5 238 c 128,-1,20
 448 263 448 263 440.5 284 c 128,-1,21
 433 305 433 305 429 306 c 0,12,13
95 122 m 0,22,23
 54 107 54 107 64 152 c 0,24,25
 81 229 81 229 216 420 c 2,26,-1
 261 482 l 2,27,28
 332 575 332 575 417 647.5 c 128,-1,29
 502 720 502 720 549 718 c 0,30,31
 579 717 579 717 613.5 642.5 c 128,-1,32
 648 568 648 568 670 474 c 128,-1,33
 692 380 692 380 701.5 290.5 c 128,-1,34
 711 201 711 201 691 170 c 0,35,36
 680 151 680 151 601.5 151.5 c 128,-1,37
 523 152 523 152 509 146 c 0,38,39
 496 137 496 137 495.5 112.5 c 128,-1,40
 495 88 495 88 500 64.5 c 128,-1,41
 505 41 505 41 500.5 21 c 128,-1,42
 496 1 496 1 475 0 c 0,43,44
 450 -2 450 -2 449 25.5 c 128,-1,45
 448 53 448 53 449 90 c 128,-1,46
 450 127 450 127 430 140 c 0,47,48
 410 152 410 152 377.5 148.5 c 128,-1,49
 345 145 345 145 314 147 c 128,-1,50
 283 149 283 149 283 166 c 0,51,52
 282 193 282 193 315 249.5 c 128,-1,53
 348 306 348 306 385 350.5 c 128,-1,54
 422 395 422 395 433 394 c 0,55,56
 459 391 459 391 470.5 345.5 c 128,-1,57
 482 300 482 300 490 255 c 128,-1,58
 498 210 498 210 513 208 c 0,59,60
 541 207 541 207 575 207.5 c 128,-1,61
 609 208 609 208 634.5 220.5 c 128,-1,62
 660 233 660 233 655 256 c 0,63,64
 652 270 652 270 645 301.5 c 128,-1,65
 638 333 638 333 632.5 355.5 c 128,-1,66
 627 378 627 378 619 411 c 128,-1,67
 611 444 611 444 604 468 c 128,-1,68
 597 492 597 492 587.5 520 c 128,-1,69
 578 548 578 548 569 566.5 c 128,-1,70
 560 585 560 585 549.5 601 c 128,-1,71
 539 617 539 617 527 623.5 c 128,-1,72
 515 630 515 630 503 627 c 0,73,74
 454 616 454 616 385.5 536.5 c 128,-1,75
 317 457 317 457 262.5 368 c 128,-1,76
 208 279 208 279 158.5 203 c 128,-1,77
 109 127 109 127 95 122 c 0,22,23
EndSplineSet
Validated: 33
EndChar
StartChar: v
Encoding: 118 118 13
Width: 1000
Flags: HW
LayerCount: 2
Fore
SplineSet
494 -122 m 28
 497 -78 534 -45 578 -48 c 28
 617 -50 637 -91 634 -130 c 28
 632 -161 599 -176 568 -174 c 28
 533 -172 491 -157 494 -122 c 28
517 306 m 0
 478.659179688 310.79296875 430.206054688 217.8046875 435 200 c 0
 442 174 530 180 536 194 c 0
 550.580078125 228.020507812 525 305 517 306 c 0
183 122 m 0
 76 84 255 359 349 482 c 24
 437 598 571.044441124 721.140740899 637 718 c 0
 721 714 829 254 779 170 c 0
 759.137695312 136.630859375 621.186523438 162.125 597 146 c 0
 558 120 624 4 563 0 c 24
 505 -4 566.170731122 107.44879936 518 140 c 0
 484.596910786 162.572019018 371.781067077 126.780008992 371 166 c 0
 369.83422391 224.537517594 498.750292026 396.224970797 521 394 c 0
 581 388 563 212 601 208 c 0
 651.709960938 202.662109375 754.443607476 206.674105706 743 256 c 0
 714 381 665.778320312 644.2109375 591 627 c 0
 448.356587412 594.169269802 229.548072226 138.531091071 183 122 c 0
EndSplineSet
Validated: 524321
EndChar
StartChar: w
Encoding: 119 119 23
Width: 1000
Flags: W
LayerCount: 2
Fore
SplineSet
484 206 m 0,0,1
 486 239 486 239 510.5 260.5 c 128,-1,2
 535 282 535 282 568 280 c 0,3,4
 596 279 596 279 611 254 c 128,-1,5
 626 229 626 229 624 198 c 0,6,7
 623 176 623 176 603 164 c 128,-1,8
 583 152 583 152 558 154 c 0,9,10
 527 156 527 156 504.5 169 c 128,-1,11
 482 182 482 182 484 206 c 0,0,1
773 46 m 1024,12,-1
554 546 m 1,13,-1
 361 58 l 1,14,-1
 773 46 l 1,15,-1
 554 546 l 1,13,-1
293 0 m 0,16,17
 276 0 276 0 330 167 c 128,-1,18
 384 334 384 334 453 502 c 128,-1,19
 522 670 522 670 541 672 c 0,20,21
 568 675 568 675 688 454 c 0,22,23
 817 215 817 215 863 81 c 0,24,25
 879 35 879 35 875 24 c 0,26,27
 868 8 868 8 813.5 -0.5 c 128,-1,28
 759 -9 759 -9 678.5 -9.5 c 128,-1,29
 598 -10 598 -10 522.5 -8 c 128,-1,30
 447 -6 447 -6 376 -3 c 128,-1,31
 305 0 305 0 293 0 c 0,16,17
EndSplineSet
EndChar
StartChar: w
Encoding: 119 119 23
Width: 678
Flags: W
LayerCount: 2
Fore
SplineSet
242 206 m 0,0,1
 244 239 244 239 268.5 260.5 c 128,-1,2
 293 282 293 282 326 280 c 0,3,4
 354 279 354 279 369 254 c 128,-1,5
 384 229 384 229 382 198 c 0,6,7
 381 176 381 176 361 164 c 128,-1,8
 341 152 341 152 316 154 c 0,9,10
 285 156 285 156 262.5 169 c 128,-1,11
 240 182 240 182 242 206 c 0,0,1
531 46 m 1024,12,-1
312 546 m 1,13,-1
 119 58 l 1,14,-1
 531 46 l 1,15,-1
 312 546 l 1,13,-1
51 0 m 0,16,17
 34 0 34 0 88 167 c 128,-1,18
 142 334 142 334 211 502 c 128,-1,19
 280 670 280 670 299 672 c 0,20,21
 326 675 326 675 446 454 c 0,22,23
 575 215 575 215 621 81 c 0,24,25
 637 35 637 35 633 24 c 0,26,27
 626 8 626 8 571.5 -0.5 c 128,-1,28
 517 -9 517 -9 436.5 -9.5 c 128,-1,29
 356 -10 356 -10 280.5 -8 c 128,-1,30
 205 -6 205 -6 134 -3 c 128,-1,31
 63 0 63 0 51 0 c 0,16,17
EndSplineSet
Validated: 33
EndChar
StartChar: w
Encoding: 119 119 7
Width: 1000
Flags: HW
LayerCount: 2
Fore
SplineSet
484 206 m 24
 487 250 524 283 568 280 c 24
 607 278 627 237 624 198 c 24
 622 167 589 152 558 154 c 24
 523 156 481 171 484 206 c 24
773 46 m 1025
554 546 m 1
 361 58 l 1
 773 46 l 1
 554 546 l 1
293 0 m 0
 257 0 501 668 541 672 c 0
 586.380678053 676.538067805 895 74 875 24 c 0
 851.849501647 -33.8762458834 361.363438165 0 293 0 c 0
EndSplineSet
Validated: 524321
EndChar
StartChar: x
Encoding: 120 120 24
Width: 1000
Flags: W
LayerCount: 2
Fore
SplineSet
336 423 m 0,0,1
 359 402 359 402 395.5 340.5 c 128,-1,2
 432 279 432 279 434 264 c 0,3,4
 437 237 437 237 402 272 c 0,5,6
 357 317 357 317 334 364 c 0,7,8
 333 365 333 365 332 367 c 0,9,10
 321 391 321 391 325 417 c 0,11,12
 328 430 328 430 336 423 c 0,0,1
501 -84 m 0,13,14
 487 -82 487 -82 477 -94.5 c 128,-1,15
 467 -107 467 -107 467 -124 c 0,16,17
 466 -141 466 -141 475 -154.5 c 128,-1,18
 484 -168 484 -168 499 -170 c 0,19,20
 517 -172 517 -172 532.5 -162.5 c 128,-1,21
 548 -153 548 -153 549 -136 c 0,22,23
 550 -116 550 -116 536 -101.5 c 128,-1,24
 522 -87 522 -87 501 -84 c 0,13,14
501 -32 m 0,25,26
 542 -34 542 -34 570 -62 c 128,-1,27
 598 -90 598 -90 599 -130 c 0,28,29
 600 -165 600 -165 570.5 -186.5 c 128,-1,30
 541 -208 541 -208 503 -206 c 0,31,32
 468 -204 468 -204 444 -180.5 c 128,-1,33
 420 -157 420 -157 419 -122 c 0,34,35
 418 -86 418 -86 442.5 -58.5 c 128,-1,36
 467 -31 467 -31 501 -32 c 0,25,26
177 248 m 0,37,38
 189 257 189 257 229.5 278.5 c 128,-1,39
 270 300 270 300 317 334.5 c 128,-1,40
 364 369 364 369 415 423 c 0,41,42
 478 490 478 490 507 545.5 c 128,-1,43
 536 601 536 601 555 680 c 0,44,45
 561 705 561 705 579 678 c 0,46,47
 603 642 603 642 602 600 c 0,48,49
 601 587 601 587 597 578 c 0,50,51
 563 511 563 511 513 452 c 128,-1,52
 463 393 463 393 402.5 334.5 c 128,-1,53
 342 276 342 276 315 244 c 0,54,55
 304 231 304 231 303 220.5 c 128,-1,56
 302 210 302 210 309.5 202 c 128,-1,57
 317 194 317 194 325.5 188 c 128,-1,58
 334 182 334 182 348 174.5 c 128,-1,59
 362 167 362 167 369 162 c 0,60,61
 389 148 389 148 416.5 140 c 128,-1,62
 444 132 444 132 464 130.5 c 128,-1,63
 484 129 484 129 517 128 c 0,64,65
 555 127 555 127 599 145.5 c 128,-1,66
 643 164 643 164 634 192 c 0,67,68
 629 206 629 206 617 232 c 0,69,70
 600 268 600 268 608 273 c 0,71,72
 614 278 614 278 633 274 c 0,73,74
 704 259 704 259 723 132 c 0,75,76
 726 110 726 110 706 93.5 c 128,-1,77
 686 77 686 77 647 69 c 128,-1,78
 608 61 608 61 574 57 c 128,-1,79
 540 53 540 53 497 51 c 0,80,81
 440 48 440 48 387.5 68 c 128,-1,82
 335 88 335 88 269 128 c 0,83,84
 262 132 262 132 248 141 c 0,85,86
 219 157 219 157 205 167 c 128,-1,87
 191 177 191 177 174 192.5 c 128,-1,88
 157 208 157 208 158 221.5 c 128,-1,89
 159 235 159 235 177 248 c 0,37,38
EndSplineSet
EndChar
StartChar: x
Encoding: 120 120 24
Width: 690
Flags: W
LayerCount: 2
Fore
SplineSet
236 423 m 0,0,1
 259 402 259 402 295.5 340.5 c 128,-1,2
 332 279 332 279 334 264 c 0,3,4
 337 237 337 237 302 272 c 0,5,6
 257 317 257 317 234 364 c 0,7,8
 233 365 233 365 232 367 c 0,9,10
 221 391 221 391 225 417 c 0,11,12
 228 430 228 430 236 423 c 0,0,1
401 -84 m 0,13,14
 387 -82 387 -82 377 -94.5 c 128,-1,15
 367 -107 367 -107 367 -124 c 0,16,17
 366 -141 366 -141 375 -154.5 c 128,-1,18
 384 -168 384 -168 399 -170 c 0,19,20
 417 -172 417 -172 432.5 -162.5 c 128,-1,21
 448 -153 448 -153 449 -136 c 0,22,23
 450 -116 450 -116 436 -101.5 c 128,-1,24
 422 -87 422 -87 401 -84 c 0,13,14
401 -32 m 0,25,26
 442 -34 442 -34 470 -62 c 128,-1,27
 498 -90 498 -90 499 -130 c 0,28,29
 500 -165 500 -165 470.5 -186.5 c 128,-1,30
 441 -208 441 -208 403 -206 c 0,31,32
 368 -204 368 -204 344 -180.5 c 128,-1,33
 320 -157 320 -157 319 -122 c 0,34,35
 318 -86 318 -86 342.5 -58.5 c 128,-1,36
 367 -31 367 -31 401 -32 c 0,25,26
77 248 m 0,37,38
 89 257 89 257 129.5 278.5 c 128,-1,39
 170 300 170 300 217 334.5 c 128,-1,40
 264 369 264 369 315 423 c 0,41,42
 378 490 378 490 407 545.5 c 128,-1,43
 436 601 436 601 455 680 c 0,44,45
 461 705 461 705 479 678 c 0,46,47
 503 642 503 642 502 600 c 0,48,49
 501 587 501 587 497 578 c 0,50,51
 463 511 463 511 413 452 c 128,-1,52
 363 393 363 393 302.5 334.5 c 128,-1,53
 242 276 242 276 215 244 c 0,54,55
 204 231 204 231 203 220.5 c 128,-1,56
 202 210 202 210 209.5 202 c 128,-1,57
 217 194 217 194 225.5 188 c 128,-1,58
 234 182 234 182 248 174.5 c 128,-1,59
 262 167 262 167 269 162 c 0,60,61
 289 148 289 148 316.5 140 c 128,-1,62
 344 132 344 132 364 130.5 c 128,-1,63
 384 129 384 129 417 128 c 0,64,65
 455 127 455 127 499 145.5 c 128,-1,66
 543 164 543 164 534 192 c 0,67,68
 529 206 529 206 517 232 c 0,69,70
 500 268 500 268 508 273 c 0,71,72
 514 278 514 278 533 274 c 0,73,74
 604 259 604 259 623 132 c 0,75,76
 626 110 626 110 606 93.5 c 128,-1,77
 586 77 586 77 547 69 c 128,-1,78
 508 61 508 61 474 57 c 128,-1,79
 440 53 440 53 397 51 c 0,80,81
 340 48 340 48 287.5 68 c 128,-1,82
 235 88 235 88 169 128 c 0,83,84
 162 132 162 132 148 141 c 0,85,86
 119 157 119 157 105 167 c 128,-1,87
 91 177 91 177 74 192.5 c 128,-1,88
 57 208 57 208 58 221.5 c 128,-1,89
 59 235 59 235 77 248 c 0,37,38
EndSplineSet
Validated: 37
EndChar
StartChar: x
Encoding: 120 120 10
Width: 1000
Flags: HW
LayerCount: 2
Fore
SplineSet
336 423 m 0
 370 393 432 281 434 264 c 0
 439.153320312 220.200195312 354 320 332 367 c 0
 322.702148438 386.86328125 319.84765625 437.251953125 336 423 c 0
501 -84 m 24
 481 -81 467 -103 467 -124 c 24
 466 -146 478 -167 499 -170 c 24
 522 -173 548 -159 549 -136 c 24
 550 -108 528 -88 501 -84 c 24
501 -32 m 24
 555 -34 598 -76 599 -130 c 24
 600 -178 551 -208 503 -206 c 24
 457 -204 420 -169 419 -122 c 24
 418 -75 454 -30 501 -32 c 24
177 248 m 0
 223 282 301 302 415 423 c 0
 503.441836193 516.872475257 531 582 555 680 c 0
 565.934202211 724.647992363 618 620 597 578 c 24
 520 426 397 342 315 244 c 0
 277.729492188 199.45703125 338.324225211 184.013680878 369 162 c 0
 411.372070312 131.592773438 465.53792868 129.286551783 517 128 c 0
 557 127 647.496438277 149.823630386 634 192 c 0
 618 242 577.8125 285.2421875 633 274 c 0
 687 263 713 200 723 132 c 0
 732.329784415 68.5574659808 590.029296875 55.4296875 497 51 c 0
 413 47 341 85 269 128 c 24
 210 164 121.227036372 206.776505144 177 248 c 0
EndSplineSet
Validated: 524325
EndChar
StartChar: y
Encoding: 121 121 25
Width: 1000
Flags: W
LayerCount: 2
Fore
SplineSet
763 252 m 1,0,-1
 399 258 l 1,1,-1
 559 -76 l 1,2,-1
 763 252 l 1,0,-1
491 706 m 1024,3,-1
543 706 m 0,4,5
 569 705 569 705 638 607.5 c 128,-1,6
 707 510 707 510 764 406.5 c 128,-1,7
 821 303 821 303 819 284 c 0,8,9
 815 248 815 248 700 67.5 c 128,-1,10
 585 -113 585 -113 565 -110 c 0,11,12
 551 -108 551 -108 491.5 -17 c 128,-1,13
 432 74 432 74 378.5 174.5 c 128,-1,14
 325 275 325 275 325 300 c 0,15,16
 325 317 325 317 368 416 c 128,-1,17
 411 515 411 515 465 611 c 128,-1,18
 519 707 519 707 543 706 c 0,4,5
725 300 m 1024,19,-1
539 650 m 1,20,21
 539 650 539 650 443 467 c 0,22,23
 368 316 368 316 379 305 c 0,24,25
 387 299 387 299 478 298 c 128,-1,26
 569 297 569 297 656 300 c 2,27,-1
 744 302 l 1,28,-1
 539 650 l 1,20,21
EndSplineSet
EndChar
StartChar: y
Encoding: 121 121 25
Width: 634
Flags: W
LayerCount: 2
Fore
SplineSet
511 252 m 1,0,-1
 147 258 l 1,1,-1
 307 -76 l 1,2,-1
 511 252 l 1,0,-1
239 706 m 1024,3,-1
291 706 m 0,4,5
 317 705 317 705 386 607.5 c 128,-1,6
 455 510 455 510 512 406.5 c 128,-1,7
 569 303 569 303 567 284 c 0,8,9
 563 248 563 248 448 67.5 c 128,-1,10
 333 -113 333 -113 313 -110 c 0,11,12
 299 -108 299 -108 239.5 -17 c 128,-1,13
 180 74 180 74 126.5 174.5 c 128,-1,14
 73 275 73 275 73 300 c 0,15,16
 73 317 73 317 116 416 c 128,-1,17
 159 515 159 515 213 611 c 128,-1,18
 267 707 267 707 291 706 c 0,4,5
473 300 m 1024,19,-1
287 650 m 1,20,21
 287 650 287 650 191 467 c 0,22,23
 116 316 116 316 127 305 c 0,24,25
 135 299 135 299 226 298 c 128,-1,26
 317 297 317 297 404 300 c 2,27,-1
 492 302 l 1,28,-1
 287 650 l 1,20,21
EndSplineSet
Validated: 33
EndChar
StartChar: y
Encoding: 121 121 16
Width: 1000
Flags: HW
LayerCount: 2
Fore
SplineSet
763 252 m 25
 399 258 l 25
 559 -76 l 25
 763 252 l 25
491 706 m 1052
543 706 m 4
 599 704 823 322 819 284 c 0
 814.1796875 238.209960938 593 -114 565 -110 c 0
 535.301757812 -105.7578125 325 245.962890625 325 300 c 0
 325 330 491.033203125 707.856445312 543 706 c 4
725 300 m 1025
539 650 m 5
 539 650 359.213867188 321.294921875 379 305 c 0
 396 291 744 302 744 302 c 1
 539 650 l 5
EndSplineSet
Validated: 524321
EndChar
StartChar: z
Encoding: 122 122 26
Width: 1000
Flags: W
LayerCount: 2
Fore
SplineSet
784 -82 m 0,0,1
 786 -49 786 -49 810.5 -27.5 c 128,-1,2
 835 -6 835 -6 868 -8 c 0,3,4
 896 -9 896 -9 911 -34 c 128,-1,5
 926 -59 926 -59 924 -90 c 0,6,7
 923 -112 923 -112 903 -124 c 128,-1,8
 883 -136 883 -136 858 -134 c 0,9,10
 827 -132 827 -132 804.5 -119 c 128,-1,11
 782 -106 782 -106 784 -82 c 0,0,1
564 -82 m 0,12,13
 566 -49 566 -49 590.5 -27.5 c 128,-1,14
 615 -6 615 -6 648 -8 c 0,15,16
 676 -9 676 -9 691 -34 c 128,-1,17
 706 -59 706 -59 704 -90 c 0,18,19
 703 -112 703 -112 683 -124 c 128,-1,20
 663 -136 663 -136 638 -134 c 0,21,22
 607 -132 607 -132 584.5 -119 c 128,-1,23
 562 -106 562 -106 564 -82 c 0,12,13
143 130 m 0,24,25
 143 133 143 133 164 144 c 128,-1,26
 185 155 185 155 220 176.5 c 128,-1,27
 255 198 255 198 299 228.5 c 128,-1,28
 343 259 343 259 391.5 306.5 c 128,-1,29
 440 354 440 354 485 410.5 c 128,-1,30
 530 467 530 467 570.5 547.5 c 128,-1,31
 611 628 611 628 635 719 c 0,32,33
 643 750 643 750 673 725 c 0,34,35
 705 697 705 697 714 654 c 0,36,37
 719 627 719 627 707 610 c 0,38,39
 705 608 705 608 645.5 522 c 128,-1,40
 586 436 586 436 547.5 384.5 c 128,-1,41
 509 333 509 333 444.5 260 c 128,-1,42
 380 187 380 187 327 148 c 0,43,44
 285 117 285 117 357 93 c 0,45,46
 426 70 426 70 512 74 c 0,47,48
 570 77 570 77 604 99.5 c 128,-1,49
 638 122 638 122 647 152.5 c 128,-1,50
 656 183 656 183 659 213 c 128,-1,51
 662 243 662 243 666.5 264 c 128,-1,52
 671 285 671 285 687 286 c 0,53,54
 716 287 716 287 723.5 268.5 c 128,-1,55
 731 250 731 250 735 215.5 c 128,-1,56
 739 181 739 181 757 158 c 0,57,58
 771 140 771 140 801 124 c 128,-1,59
 831 108 831 108 850 111 c 0,60,61
 939 125 939 125 857 265 c 0,62,63
 847 281 847 281 829 309 c 0,64,65
 799 360 799 360 807 360 c 0,66,67
 886 343 886 343 927.5 278 c 128,-1,68
 969 213 969 213 971 124 c 0,69,70
 972 83 972 83 928.5 63 c 128,-1,71
 885 43 885 43 845 62 c 0,72,73
 795 89 795 89 742.5 86.5 c 128,-1,74
 690 84 690 84 658 70 c 128,-1,75
 626 56 626 56 580 39.5 c 128,-1,76
 534 23 534 23 497 24 c 0,77,78
 438 25 438 25 290.5 66.5 c 128,-1,79
 143 108 143 108 143 130 c 0,24,25
EndSplineSet
EndChar
StartChar: z
Encoding: 122 122 26
Width: 936
Flags: W
LayerCount: 2
Fore
SplineSet
692 -82 m 0,0,1
 694 -49 694 -49 718.5 -27.5 c 128,-1,2
 743 -6 743 -6 776 -8 c 0,3,4
 804 -9 804 -9 819 -34 c 128,-1,5
 834 -59 834 -59 832 -90 c 0,6,7
 831 -112 831 -112 811 -124 c 128,-1,8
 791 -136 791 -136 766 -134 c 0,9,10
 735 -132 735 -132 712.5 -119 c 128,-1,11
 690 -106 690 -106 692 -82 c 0,0,1
472 -82 m 0,12,13
 474 -49 474 -49 498.5 -27.5 c 128,-1,14
 523 -6 523 -6 556 -8 c 0,15,16
 584 -9 584 -9 599 -34 c 128,-1,17
 614 -59 614 -59 612 -90 c 0,18,19
 611 -112 611 -112 591 -124 c 128,-1,20
 571 -136 571 -136 546 -134 c 0,21,22
 515 -132 515 -132 492.5 -119 c 128,-1,23
 470 -106 470 -106 472 -82 c 0,12,13
51 130 m 0,24,25
 51 133 51 133 72 144 c 128,-1,26
 93 155 93 155 128 176.5 c 128,-1,27
 163 198 163 198 207 228.5 c 128,-1,28
 251 259 251 259 299.5 306.5 c 128,-1,29
 348 354 348 354 393 410.5 c 128,-1,30
 438 467 438 467 478.5 547.5 c 128,-1,31
 519 628 519 628 543 719 c 0,32,33
 551 750 551 750 581 725 c 0,34,35
 613 697 613 697 622 654 c 0,36,37
 627 627 627 627 615 610 c 0,38,39
 613 608 613 608 553.5 522 c 128,-1,40
 494 436 494 436 455.5 384.5 c 128,-1,41
 417 333 417 333 352.5 260 c 128,-1,42
 288 187 288 187 235 148 c 0,43,44
 193 117 193 117 265 93 c 0,45,46
 334 70 334 70 420 74 c 0,47,48
 478 77 478 77 512 99.5 c 128,-1,49
 546 122 546 122 555 152.5 c 128,-1,50
 564 183 564 183 567 213 c 128,-1,51
 570 243 570 243 574.5 264 c 128,-1,52
 579 285 579 285 595 286 c 0,53,54
 624 287 624 287 631.5 268.5 c 128,-1,55
 639 250 639 250 643 215.5 c 128,-1,56
 647 181 647 181 665 158 c 0,57,58
 679 140 679 140 709 124 c 128,-1,59
 739 108 739 108 758 111 c 0,60,61
 847 125 847 125 765 265 c 0,62,63
 755 281 755 281 737 309 c 0,64,65
 707 360 707 360 715 360 c 0,66,67
 794 343 794 343 835.5 278 c 128,-1,68
 877 213 877 213 879 124 c 0,69,70
 880 83 880 83 836.5 63 c 128,-1,71
 793 43 793 43 753 62 c 0,72,73
 703 89 703 89 650.5 86.5 c 128,-1,74
 598 84 598 84 566 70 c 128,-1,75
 534 56 534 56 488 39.5 c 128,-1,76
 442 23 442 23 405 24 c 0,77,78
 346 25 346 25 198.5 66.5 c 128,-1,79
 51 108 51 108 51 130 c 0,24,25
EndSplineSet
Validated: 33
EndChar
StartChar: z
Encoding: 122 122 21
Width: 1000
Flags: HW
LayerCount: 2
Fore
SplineSet
784 -82 m 24
 787 -38 824 -5 868 -8 c 24
 907 -10 927 -51 924 -90 c 24
 922 -121 889 -136 858 -134 c 24
 823 -132 781 -117 784 -82 c 24
564 -82 m 24
 567 -38 604 -5 648 -8 c 24
 687 -10 707 -51 704 -90 c 24
 702 -121 669 -136 638 -134 c 24
 603 -132 561 -117 564 -82 c 24
143 130 m 0
 143 146 516 275 635 719 c 0
 650.926757812 778.424804688 742.845010496 659.72049843 707 610 c 0
 645 524 478.477365651 261.006923581 327 148 c 0
 264 101 420.099601413 70.042566568 512 74 c 0
 721 83 627 284 687 286 c 0
 753.235351562 288.208007812 712.11328125 216.087890625 757 158 c 0
 774 136 823.014591877 106.783565099 850 111 c 0
 990.701171875 132.984375 769 368 807 360 c 0
 917.033561314 336.835039723 969.002472041 235.861565705 971 124 c 0
 972 68 896.116210938 37.76953125 845 62 c 0
 691 135 615.992399732 22.324050708 497 24 c 0
 426 25 143 98 143 130 c 0
EndSplineSet
Validated: 524321
EndChar
StartChar: braceleft
Encoding: 123 123 40
Width: 754
Flags: W
LayerCount: 2
Fore
SplineSet
434 723 m 24,0,1
 460.008179079 712.384416703 460.008179079 712.384416703 459 665 c 24,2,3
 457.408202653 626.796863668 457.408202653 626.796863668 430 584 c 4,4,5
 348 455 348 455 255 344 c 1,6,7
 398 242 398 242 419 352 c 0,8,9
 438 452 438 452 442 467 c 0,10,11
 444 475 444 475 453.060546875 399.092773438 c 24,12,13
 462 328 462 328 508 338 c 0,14,15
 559 348 559 348 556 359 c 0,16,17
 534 449 534 449 542 456.5 c 152,-1,18
 550 464 550 464 575 422 c 0,19,20
 686 240 686 240 664 178 c 24,21,22
 653 146 653 146 613 108 c 0,23,24
 521.00706551 19.0068351125 521.00706551 19.0068351125 375 -32 c 24,25,26
 230.08178229 -82.9712351946 230.08178229 -82.9712351946 155 -52 c 24,27,28
 115 -35 115 -35 135 67 c 24,29,30
 162 90 162 90 188 113 c 24,31,32
 148.942925437 15.8580453182 148.942925437 15.8580453182 201 -20 c 24,33,34
 237 -45 237 -45 353.5 -1 c 24,35,36
 424 26 424 26 542 109 c 0,37,38
 622 165 622 165 609.509765625 229.966796875 c 0,39,40
 597 292 597 292 578 307 c 24,41,42
 524.044937664 293.733148376 524.044937664 293.733148376 510 299 c 24,43,44
 445.966907963 323.012409514 445.966907963 323.012409514 447 326 c 0,45,46
 410 219 410 219 360 244 c 128,-1,47
 310 269 310 269 281 280 c 0,48,-1
 199 334 l 0,49,50
 319 450 319 450 379 574 c 0,51,52
 417 652 417 652 410 685 c 24,53,54
 425 727 425 727 434 723 c 24,0,1
107 379 m 24,55,56
 120.950195312 382.150390625 120.950195312 382.150390625 130 355 c 24,57,58
 137 334 137 334 104 319 c 24,59,60
 66.037109375 301.744140625 66.037109375 301.744140625 68 341 c 24,61,62
 69 371 69 371 107 379 c 24,55,56
EndSplineSet
Validated: 524321
EndChar
StartChar: braceright
Encoding: 125 125 41
Width: 592
Flags: W
LayerCount: 2
Fore
SplineSet
111 378 m 28,0,1
 144.478835266 373.748719331 144.478835266 373.748719331 145 343 c 24,2,3
 145 314.80952381 145 314.80952381 112 319 c 24,4,5
 82.4778082192 322.809315068 82.4778082192 322.809315068 82 351 c 24,6,7
 81 382 81 382 111 378 c 28,0,1
197 873 m 1176,-1,-1
95 96 m 1,8,9
 86 91 86 91 82.5 82.5 c 128,-1,10
 79 74 79 74 77.5 52.5 c 128,-1,11
 76 31 76 31 73.5 13 c 128,-1,12
 71 -5 71 -5 91.5 -17.5 c 0,13,14
 108 -28 108 -28 162 -26 c 128,-1,15
 216 -24 216 -24 244 -20.5 c 128,-1,16
 272 -17 272 -17 298.5 0 c 128,-1,17
 325 17 325 17 339 32.5 c 128,-1,18
 353 48 353 48 389 92 c 0,19,20
 455 173 455 173 460.7441166 184.674429011 c 0,21,22
 468 199 468 199 467 230 c 0,23,24
 466 250 466 250 438 277 c 128,-1,25
 410 304 410 304 385 323 c 128,-1,26
 360 342 360 342 363 346 c 0,27,28
 364 348 364 348 374.5 359 c 128,-1,29
 385 370 385 370 395.5 382.5 c 128,-1,30
 406 395 406 395 416.5 409 c 128,-1,31
 427 423 427 423 432 433 c 128,-1,32
 437 443 437 443 433 446 c 0,33,34
 427 450 427 450 394.5 423 c 128,-1,35
 362 396 362 396 325 362.5 c 128,-1,36
 288 329 288 329 277 324 c 0,37,38
 247 308 247 308 198.573139508 318.166775717 c 0,39,40
 170 324 170 324 173 332 c 0,41,42
 175 337 175 337 244.5 398.5 c 0,43,44
 312 458 312 458 317 470 c 0,45,46
 319 474 319 474 338 505.5 c 128,-1,47
 357 537 357 537 371 569 c 128,-1,48
 385 601 385 601 385 622 c 0,49,50
 385 638 385 638 381.5 674.5 c 128,-1,51
 378 711 378 711 378.5 731.5 c 128,-1,52
 379 752 379 752 387 752 c 0,53,54
 400 752 400 752 425 677.5 c 128,-1,55
 450 603 450 603 445 580 c 0,56,57
 441 560 441 560 373.5 482.5 c 128,-1,58
 306 405 306 405 287 390 c 1,59,-1
 328.777777778 413.703703704 l 1,60,61
 463 496 463 496 457.288881873 512.119990724 c 0,62,63
 457 513 457 513 455 514 c 0,64,65
 446 517 446 517 446.034258965 507.656052741 c 0,66,67
 446 502 446 502 451.829192671 483.179730447 c 0,68,69
 466 434 466 434 457 418 c 0,70,71
 450 405 450 405 429.5 387 c 128,-1,72
 409 369 409 369 409 354 c 0,73,74
 409 345 409 345 427 330.5 c 128,-1,75
 445 316 445 316 466.5 302.5 c 128,-1,76
 488 289 488 289 503.890841642 271.056271753 c 128,-1,77
 519.781683285 253.112543507 519.781683285 253.112543507 519 238 c 0,78,79
 516 180 516 180 419 51.5 c 128,-1,80
 322 -77 322 -77 291 -84 c 0,81,82
 259 -91 259 -91 181 -85.5 c 128,-1,83
 103 -80 103 -80 83 -68 c 0,84,85
 61 -55 61 -55 50 -16 c 128,-1,86
 39 23 39 23 52 54 c 0,87,88
 60 74 60 74 69 84.5 c 128,-1,89
 78 95 78 95 86.5 95.5 c 2,90,-1
 95 96 l 1,8,9
EndSplineSet
Validated: 524325
EndChar
StartChar: asciitilde
Encoding: 126 126 27
Width: 710
Flags: W
LayerCount: 2
Fore
SplineSet
417 172 m 1,0,1
 408 168 408 168 395.5 160.5 c 128,-1,2
 383 153 383 153 363 133 c 128,-1,3
 343 113 343 113 347 95 c 0,4,5
 349 87 349 87 358 84 c 128,-1,6
 367 81 367 81 379.5 82.5 c 128,-1,7
 392 84 392 84 404 87 c 128,-1,8
 416 90 416 90 424 93 c 2,9,-1
 432 96 l 1,10,-1
 417 172 l 1,0,1
59 108 m 0,12,13
 104 171 104 171 201 253 c 128,-1,14
 298 335 298 335 345 392 c 0,15,16
 402 461 402 461 428 495 c 128,-1,17
 454 529 454 529 486.5 583 c 128,-1,18
 519 637 519 637 541 694 c 0,19,20
 555 730 555 730 581 712 c 0,21,22
 605 696 605 696 607 662 c 1,23,-1
 605 642 l 1,24,25
 597 617 597 617 517.5 511 c 128,-1,26
 438 405 438 405 416 358 c 0,27,28
 413 352 413 352 428.5 347.5 c 128,-1,29
 444 343 444 343 469 338.5 c 128,-1,30
 494 334 494 334 524 322 c 128,-1,31
 554 310 554 310 580.5 292.5 c 128,-1,32
 607 275 607 275 625 240.5 c 128,-1,33
 643 206 643 206 643 160 c 0,34,35
 643 125 643 125 625.5 108 c 128,-1,36
 608 91 608 91 585 89 c 128,-1,37
 562 87 562 87 533.5 78.5 c 128,-1,38
 505 70 505 70 491 52 c 0,39,40
 478 34 478 34 482 11.5 c 128,-1,41
 486 -11 486 -11 484.5 -31 c 128,-1,42
 483 -51 483 -51 465 -52 c 128,-1,43
 447 -53 447 -53 440 -40.5 c 128,-1,44
 433 -28 433 -28 434.5 -11.5 c 128,-1,45
 436 5 436 5 434 22.5 c 128,-1,46
 432 40 432 40 422 46 c 0,47,48
 408 54 408 54 383 55 c 128,-1,49
 358 56 358 56 337 54 c 128,-1,50
 316 52 316 52 298 53.5 c 128,-1,51
 280 55 280 55 277 63 c 0,52,53
 270 82 270 82 335 157 c 128,-1,54
 400 232 400 232 429 237 c 0,55,56
 445 240 445 240 454.5 225 c 128,-1,57
 464 210 464 210 467.5 190 c 128,-1,58
 471 170 471 170 480.5 153 c 128,-1,59
 490 136 490 136 505 136 c 0,60,61
 525 136 525 136 535.5 136.5 c 128,-1,62
 546 137 546 137 560.5 140.5 c 128,-1,63
 575 144 575 144 581.5 152 c 128,-1,64
 588 160 588 160 587 173 c 0,65,66
 585 209 585 209 539 243.5 c 128,-1,67
 493 278 493 278 435.5 294 c 128,-1,68
 378 310 378 310 342 300 c 0,69,70
 339 299 339 299 278 251 c 0,71,72
 51 73 51 73 50 92 c 0,73,74
 50 96 50 96 59 108 c 0,12,13
EndSplineSet
Validated: 33
EndChar
StartChar: asciitilde
Encoding: 126 126 8
Width: 1000
Flags: HW
LayerCount: 2
Back
Fore
SplineSet
463 172 m 29
 463 172 385 135 393 95 c 28
 399 65 478 96 478 96 c 29
 463 172 l 29
937 -122 m 1052
105 108 m 4
 190.748898739 227.528767939 291 270 391 392 c 28
 480 500 541.355572942 573.664692303 587 694 c 4
 609 752 665.7890625 690.065429688 651 642 c 4
 635 590 504.869140625 449.138671875 462 358 c 4
 449.590820312 331.618164062 687.078423681 356.000784551 689 160 c 4
 690 58 582 109 537 52 c 28
 512 20 552.190429688 -48.94921875 511 -52 c 4
 457 -56 498.665039062 28.4404296875 468 46 c 4
 426.409179688 69.81640625 332 38 323 63 c 4
 314.167276911 87.5353419139 436 230 475 237 c 4
 523.26953125 245.6640625 505 136 551 136 c 4
 589.079101562 136 635 136 633 173 c 4
 628.862522733 249.543329441 461 321 388 300 c 28
 377.500976562 296.958984375 39 16 105 108 c 4
EndSplineSet
Validated: 524321
EndChar
